<svg width="304" height="152" viewBox="0 0 304 152" fill="none" xmlns="http://www.w3.org/2000/svg">
<g clip-path="url(#clip0_82_889)">
<rect width="304" height="152" rx="12" fill="url(#paint0_linear_82_889)"/>
<path d="M222.993 41C201.687 41 201.651 71 222.993 71C244.336 71 244.336 41 222.993 41Z" fill="#EBEBEB"/>
<path d="M236 58.6967C234.873 63.6695 230.59 68 223.155 68C205.601 68 205.629 44 223.155 44C223.272 44 223.385 44 223.498 44C207.006 44.2892 207.088 67.016 223.822 67.016C230.652 67.0084 234.717 63.2075 236 58.6967Z" fill="#DBDBDB"/>
<path d="M222.758 47.0009C222.892 46.9966 223.023 47.0461 223.122 47.1389C223.221 47.2317 223.281 47.3607 223.29 47.4985V48.3343C224.707 48.4305 226.068 48.9357 227.219 49.7921C227.419 49.9359 227.529 50.0603 227.529 50.2702C227.519 50.4174 227.453 50.5546 227.346 50.6522C227.239 50.7497 227.098 50.7997 226.955 50.7911C226.809 50.7977 226.665 50.7446 226.556 50.6434C225.589 49.8847 224.438 49.4164 223.23 49.2906V55.1217C226.586 55.7864 228 56.9759 228 59.009C228 61.2171 226.035 62.7798 223.275 62.8614V64.498C223.264 64.6349 223.203 64.7625 223.105 64.8554C223.007 64.9484 222.878 65 222.745 65C222.612 65 222.483 64.9484 222.385 64.8554C222.287 64.7625 222.227 64.6349 222.215 64.498V62.8536C220.393 62.7358 218.654 62.0284 217.245 60.8322C217.173 60.7861 217.112 60.7222 217.069 60.6463C217.027 60.5703 217.003 60.4846 217 60.3968C217.012 60.2508 217.079 60.1152 217.186 60.0183C217.292 59.9213 217.431 59.8704 217.573 59.8759C217.712 59.8792 217.846 59.9329 217.95 60.0275C219.15 61.122 220.66 61.7874 222.257 61.9246V55.9769C218.946 55.2927 217.577 54.1459 217.577 52.0623C217.577 49.9787 219.519 48.3537 222.215 48.2915V47.5141C222.217 47.4433 222.233 47.3736 222.261 47.3091C222.29 47.2447 222.331 47.1868 222.381 47.139C222.432 47.0911 222.492 47.0542 222.556 47.0305C222.621 47.0068 222.69 46.9967 222.758 47.0009ZM222.272 54.9156V49.2284C220.13 49.2712 218.716 50.4801 218.716 51.9768C218.704 53.3957 219.425 54.2703 222.272 54.9156ZM223.23 56.1868V61.9362C225.439 61.8973 226.872 60.6884 226.872 59.1023C226.888 57.6679 226.115 56.7893 223.23 56.1868Z" fill="#DBDBDB"/>
<path d="M279.159 90.7097C259.583 100.736 274.4 129.749 294.007 119.712C313.615 109.675 298.767 80.6676 279.159 90.7097Z" fill="#DBDBDB"/>
<path d="M280.998 89.7672C262.353 99.3224 277.16 128.335 295.846 118.769C314.532 109.204 299.699 80.1964 280.998 89.7672Z" fill="#EBEBEB"/>
<path d="M301.16 101.171C302.713 106.671 301.16 112.938 294.582 116.299C279.076 124.244 266.771 100.167 282.256 92.2325L282.562 92.0823C268.144 99.8507 279.884 122.592 294.67 115.02C300.704 111.933 302.346 106.278 301.16 101.171Z" fill="#DBDBDB"/>
<path d="M286.752 94.5061C286.893 94.4832 287.039 94.5164 287.156 94.5985C287.274 94.6806 287.356 94.8053 287.383 94.9463L287.544 95.8371C289.015 95.6883 290.498 95.9822 291.801 96.6812C292.029 96.8055 292.164 96.9195 292.205 97.1422C292.229 97.2932 292.192 97.4475 292.103 97.5716C292.014 97.6958 291.879 97.7797 291.729 97.8051C291.655 97.8201 291.579 97.8201 291.505 97.805C291.431 97.7898 291.361 97.7599 291.299 97.717C290.198 97.0896 288.938 96.7963 287.673 96.8729L288.823 103.114C292.34 103.212 294.002 104.227 294.396 106.413C294.82 108.779 293.137 110.815 290.367 111.405L290.682 113.145C290.709 113.287 290.677 113.434 290.595 113.553C290.513 113.672 290.387 113.754 290.245 113.78C290.103 113.806 289.956 113.774 289.837 113.692C289.718 113.61 289.637 113.484 289.61 113.342L289.289 111.576C287.395 111.774 285.489 111.331 283.877 110.317C283.793 110.279 283.719 110.221 283.661 110.148C283.603 110.075 283.564 109.989 283.546 109.898C283.527 109.787 283.542 109.672 283.587 109.569C283.632 109.466 283.707 109.378 283.801 109.317C283.896 109.255 284.006 109.222 284.119 109.223C284.232 109.223 284.342 109.256 284.437 109.318C285.82 110.262 287.485 110.703 289.155 110.566L288.005 104.206C284.525 104.072 282.919 103.093 282.515 100.866C282.111 98.6389 283.763 96.5362 286.472 95.9769L286.317 95.1275C286.296 94.9881 286.33 94.8462 286.411 94.7307C286.492 94.6152 286.614 94.5349 286.752 94.5061ZM287.787 103.077L286.689 96.9868C284.53 97.4218 283.339 98.9703 283.629 100.581C283.898 102.088 284.778 102.896 287.787 103.067V103.077ZM289.015 104.258L290.128 110.421C292.355 109.97 293.572 108.417 293.262 106.718C292.966 105.17 292.029 104.372 289.01 104.248L289.015 104.258Z" fill="#DBDBDB"/>
<path d="M235.921 1.21941C250.314 3.8338 246.516 25.395 232.089 22.7806C217.662 20.1662 221.507 -1.39498 235.921 1.21941Z" fill="#DBDBDB"/>
<path d="M235.015 0.209839C249.381 2.817 245.398 25.4019 231.001 22.7902C216.604 20.1785 220.609 -2.40183 235.015 0.209839Z" fill="#EBEBEB"/>
<path d="M224 11.9665C224.079 16.0001 226.365 19.9072 231.358 20.8251C243.145 23.0002 246.408 4.20674 234.638 2.0407L234.409 2C245.443 4.26101 242.282 22.0506 231.041 19.9795C226.475 19.1384 224.264 15.6565 224 11.9665Z" fill="#DBDBDB"/>
<path d="M233.361 4.00642C233.405 4.01521 233.448 4.0334 233.486 4.05993C233.525 4.08645 233.557 4.12079 233.583 4.16095C233.609 4.2011 233.627 4.24627 233.636 4.29385C233.645 4.34142 233.645 4.39046 233.636 4.4381L233.531 5.03814C234.433 5.29255 235.244 5.82762 235.859 6.57493C235.91 6.62171 235.949 6.68134 235.973 6.74843C235.997 6.81552 236.005 6.88794 235.996 6.95913C235.977 7.05978 235.921 7.14809 235.84 7.20473C235.76 7.26136 235.661 7.28171 235.567 7.26131C235.519 7.25418 235.473 7.23671 235.432 7.20999C235.391 7.18326 235.355 7.14783 235.327 7.1059C234.821 6.44952 234.146 5.96487 233.385 5.71157L232.647 9.91617C234.707 10.8227 235.461 11.8587 235.206 13.3308C234.926 14.9237 233.474 15.8 231.698 15.5108L231.491 16.685C231.484 16.7339 231.469 16.781 231.444 16.8233C231.42 16.8656 231.389 16.9023 231.351 16.9311C231.313 16.96 231.27 16.9804 231.225 16.9912C231.179 17.002 231.133 17.0029 231.087 16.9938C231.041 16.9848 230.998 16.966 230.959 16.9387C230.92 16.9113 230.887 16.8758 230.862 16.8345C230.836 16.7931 230.819 16.7467 230.81 16.698C230.802 16.6493 230.803 16.5994 230.814 16.5512L231.021 15.364C229.855 15.0342 228.827 14.2987 228.101 13.2747C228.048 13.2159 228.014 13.1411 228.004 13.0608C227.993 12.9804 228.006 12.8985 228.042 12.8266C228.077 12.7547 228.133 12.6964 228.201 12.6599C228.269 12.6233 228.346 12.6104 228.421 12.6228C228.515 12.6414 228.599 12.6969 228.656 12.7782C229.263 13.7048 230.151 14.3803 231.171 14.6906L231.917 10.4083C229.889 9.49312 229.159 8.49593 229.419 6.99367C229.678 5.49141 231.13 4.56329 232.862 4.86115L232.959 4.29133C232.978 4.19736 233.03 4.11489 233.105 4.06163C233.18 4.00836 233.272 3.98854 233.361 4.00642ZM232.051 9.65284L232.768 5.55185C231.394 5.3101 230.335 5.98352 230.149 7.08432C229.962 8.18511 230.315 8.82833 232.051 9.65284ZM232.513 10.6932L231.787 14.8374C233.202 15.0877 234.273 14.4057 234.476 13.2574C234.654 12.2214 234.273 11.4918 232.513 10.6932Z" fill="#DBDBDB"/>
<path d="M211.501 124.067H251.68V115.191H211.501V124.067Z" fill="white"/>
<g opacity="0.1">
<path d="M250.022 123.254C249.668 120.901 249.668 118.507 250.022 116.154C250.38 118.507 250.38 120.901 250.022 123.254Z" fill="black"/>
<path d="M247.029 123.254C246.674 120.901 246.674 118.507 247.029 116.154C247.386 118.507 247.386 120.901 247.029 123.254Z" fill="black"/>
<path d="M245.568 123.254C245.214 120.901 245.214 118.507 245.568 116.154C245.926 118.507 245.926 120.901 245.568 123.254Z" fill="black"/>
<path d="M237.551 123.254C237.194 120.901 237.194 118.507 237.551 116.154C237.906 118.507 237.906 120.901 237.551 123.254Z" fill="black"/>
<path d="M235.376 123.254C235.019 120.901 235.019 118.507 235.376 116.154C235.734 118.507 235.734 120.901 235.376 123.254Z" fill="black"/>
<path d="M226.396 123.254C226.041 120.901 226.041 118.507 226.396 116.154C226.753 118.507 226.753 120.901 226.396 123.254Z" fill="black"/>
<path d="M224.324 123.254C223.967 120.901 223.967 118.507 224.324 116.154C224.679 118.507 224.679 120.901 224.324 123.254Z" fill="black"/>
<path d="M220.512 123.254C220.158 120.901 220.158 118.507 220.512 116.154C220.872 118.507 220.872 120.901 220.512 123.254Z" fill="black"/>
<path d="M228.131 123.254C227.776 120.901 227.776 118.507 228.131 116.154C228.488 118.507 228.488 120.901 228.131 123.254Z" fill="black"/>
<path d="M242.917 123.254C242.562 120.901 242.562 118.507 242.917 116.154C243.271 118.507 243.271 120.901 242.917 123.254Z" fill="black"/>
<path d="M232.517 123.254C232.163 120.901 232.163 118.507 232.517 116.154C232.875 118.507 232.875 120.901 232.517 123.254Z" fill="black"/>
<path d="M231.021 123.254C230.666 120.901 230.666 118.507 231.021 116.154C231.378 118.507 231.378 120.901 231.021 123.254Z" fill="black"/>
<path d="M215.551 123.254C215.194 120.901 215.194 118.507 215.551 116.154C215.906 118.507 215.906 120.901 215.551 123.254Z" fill="black"/>
<path d="M213.309 123.254C212.951 120.901 212.951 118.507 213.309 116.154C213.663 118.508 213.663 120.901 213.309 123.254Z" fill="black"/>
<path d="M218.746 123.254C218.392 120.901 218.392 118.507 218.746 116.154C219.104 118.507 219.104 120.901 218.746 123.254Z" fill="black"/>
<path d="M239.281 123.254C238.921 120.901 238.921 118.507 239.281 116.154C239.636 118.507 239.636 120.901 239.281 123.254Z" fill="black"/>
</g>
<path opacity="0.1" d="M211.501 124.067V122.182L251.68 120.913V124.067H211.501Z" fill="black"/>
<path d="M214.251 132.949H254.43V124.073H214.251V132.949Z" fill="white"/>
<g opacity="0.1">
<path d="M252.772 132.131C252.415 129.778 252.415 127.384 252.772 125.031C253.127 127.385 253.127 129.778 252.772 132.131Z" fill="black"/>
<path d="M249.779 132.131C249.422 129.778 249.422 127.384 249.779 125.031C250.134 127.385 250.134 129.778 249.779 132.131Z" fill="black"/>
<path d="M248.319 132.131C247.961 129.778 247.961 127.384 248.319 125.031C248.673 127.385 248.673 129.778 248.319 132.131Z" fill="black"/>
<path d="M240.291 132.131C239.936 129.778 239.936 127.385 240.291 125.031C240.649 127.384 240.649 129.778 240.291 132.131Z" fill="black"/>
<path d="M238.121 132.131C237.766 129.778 237.766 127.385 238.121 125.031C238.478 127.384 238.478 129.778 238.121 132.131Z" fill="black"/>
<path d="M229.146 132.131C228.789 129.778 228.789 127.384 229.146 125.031C229.501 127.385 229.501 129.778 229.146 132.131Z" fill="black"/>
<path d="M227.069 132.131C226.715 129.778 226.715 127.385 227.069 125.031C227.427 127.384 227.427 129.778 227.069 132.131Z" fill="black"/>
<path d="M223.263 132.131C222.908 129.778 222.908 127.385 223.263 125.031C223.62 127.384 223.62 129.778 223.263 132.131Z" fill="black"/>
<path d="M230.881 132.131C230.524 129.778 230.524 127.384 230.881 125.031C231.236 127.385 231.236 129.778 230.881 132.131Z" fill="black"/>
<path d="M245.667 132.131C245.31 129.778 245.31 127.384 245.667 125.031C246.022 127.385 246.022 129.778 245.667 132.131Z" fill="black"/>
<path d="M235.268 132.131C234.91 129.778 234.91 127.384 235.268 125.031C235.622 127.385 235.622 129.778 235.268 132.131Z" fill="black"/>
<path d="M233.771 132.131C233.413 129.778 233.413 127.384 233.771 125.031C234.126 127.385 234.126 129.778 233.771 132.131Z" fill="black"/>
<path d="M218.301 132.131C217.944 129.778 217.944 127.384 218.301 125.031C218.656 127.385 218.656 129.778 218.301 132.131Z" fill="black"/>
<path d="M216.053 132.131C215.699 129.778 215.699 127.384 216.053 125.031C216.411 127.384 216.411 129.778 216.053 132.131Z" fill="black"/>
<path d="M221.497 132.131C221.139 129.778 221.139 127.384 221.497 125.031C221.851 127.385 221.851 129.778 221.497 132.131Z" fill="black"/>
<path d="M242.026 132.131C241.671 129.778 241.671 127.385 242.026 125.031C242.383 127.384 242.383 129.778 242.026 132.131Z" fill="black"/>
</g>
<path opacity="0.1" d="M214.251 132.944V131.059L254.43 129.79V132.944H214.251Z" fill="black"/>
<path d="M208.042 150.63H248.22V141.754H208.042V150.63Z" fill="white"/>
<g opacity="0.1">
<path d="M246.563 149.817C246.208 147.462 246.208 145.067 246.563 142.712C246.92 145.067 246.92 147.462 246.563 149.817Z" fill="black"/>
<path d="M243.569 149.817C243.215 147.462 243.215 145.067 243.569 142.712C243.927 145.067 243.927 147.462 243.569 149.817Z" fill="black"/>
<path d="M242.109 149.817C241.754 147.462 241.754 145.067 242.109 142.712C242.466 145.067 242.466 147.462 242.109 149.817Z" fill="black"/>
<path d="M234.087 149.817C233.729 147.462 233.729 145.067 234.087 142.712C234.441 145.067 234.441 147.462 234.087 149.817Z" fill="black"/>
<path d="M231.917 149.817C231.559 147.462 231.559 145.067 231.917 142.712C232.271 145.067 232.271 147.462 231.917 149.817Z" fill="black"/>
<path d="M222.936 149.817C222.582 147.462 222.582 145.067 222.936 142.712C223.294 145.067 223.294 147.462 222.936 149.817Z" fill="black"/>
<path d="M220.865 149.817C220.507 147.462 220.507 145.067 220.865 142.712C221.22 145.067 221.22 147.462 220.865 149.817Z" fill="black"/>
<path d="M217.058 149.817C216.701 147.462 216.701 145.067 217.058 142.712C217.413 145.067 217.413 147.462 217.058 149.817Z" fill="black"/>
<path d="M224.671 149.817C224.317 147.462 224.317 145.067 224.671 142.712C225.029 145.067 225.029 147.462 224.671 149.817Z" fill="black"/>
<path d="M239.457 149.817C239.102 147.462 239.102 145.067 239.457 142.712C239.815 145.067 239.815 147.462 239.457 149.817Z" fill="black"/>
<path d="M229.058 149.817C228.703 147.462 228.703 145.067 229.058 142.712C229.415 145.067 229.415 147.462 229.058 149.817Z" fill="black"/>
<path d="M227.561 149.817C227.206 147.462 227.206 145.067 227.561 142.712C227.919 145.067 227.919 147.462 227.561 149.817Z" fill="black"/>
<path d="M212.092 149.817C211.737 147.462 211.737 145.067 212.092 142.712C212.449 145.067 212.449 147.462 212.092 149.817Z" fill="black"/>
<path d="M209.849 149.817C209.492 147.462 209.492 145.067 209.849 142.712C210.204 145.067 210.204 147.462 209.849 149.817Z" fill="black"/>
<path d="M215.282 149.817C214.927 147.462 214.927 145.067 215.282 142.712C215.639 145.067 215.639 147.462 215.282 149.817Z" fill="black"/>
<path d="M235.822 149.817C235.464 147.462 235.464 145.067 235.822 142.712C236.176 145.067 236.176 147.462 235.822 149.817Z" fill="black"/>
</g>
<path opacity="0.1" d="M208.042 150.63V148.745L248.22 147.476V150.63H208.042Z" fill="black"/>
<path d="M209.057 159.507H249.235V150.631H209.057V159.507Z" fill="white"/>
<g opacity="0.1">
<path d="M210.864 151.594C211.219 153.947 211.219 156.341 210.864 158.694C210.507 156.341 210.507 153.947 210.864 151.594Z" fill="black"/>
<path d="M213.852 151.594C214.21 153.947 214.21 156.341 213.852 158.694C213.498 156.341 213.498 153.947 213.852 151.594Z" fill="black"/>
<path d="M215.318 151.594C215.673 153.947 215.673 156.341 215.318 158.694C214.961 156.341 214.961 153.947 215.318 151.594Z" fill="black"/>
<path d="M223.34 151.594C223.695 153.947 223.695 156.341 223.34 158.694C222.986 156.341 222.986 153.947 223.34 151.594Z" fill="black"/>
<path d="M225.51 151.594C225.868 153.947 225.868 156.341 225.51 158.694C225.156 156.341 225.156 153.947 225.51 151.594Z" fill="black"/>
<path d="M234.485 151.594C234.843 153.947 234.843 156.341 234.485 158.694C234.131 156.341 234.131 153.947 234.485 151.594Z" fill="black"/>
<path d="M236.562 151.594C236.917 153.947 236.917 156.341 236.562 158.694C236.205 156.341 236.205 153.947 236.562 151.594Z" fill="black"/>
<path d="M240.369 151.594C240.726 153.947 240.726 156.341 240.369 158.694C240.014 156.341 240.014 153.947 240.369 151.594Z" fill="black"/>
<path d="M232.756 151.594C233.11 153.947 233.11 156.341 232.756 158.694C232.398 156.341 232.398 153.947 232.756 151.594Z" fill="black"/>
<path d="M217.97 151.594C218.324 153.947 218.324 156.341 217.97 158.694C217.612 156.341 217.612 153.947 217.97 151.594Z" fill="black"/>
<path d="M228.369 151.594C228.724 153.947 228.724 156.341 228.369 158.694C228.012 156.341 228.012 153.947 228.369 151.594Z" fill="black"/>
<path d="M229.866 151.594C230.221 153.947 230.221 156.341 229.866 158.694C229.509 156.341 229.509 153.947 229.866 151.594Z" fill="black"/>
<path d="M245.32 151.594C245.675 153.947 245.675 156.341 245.32 158.694C244.963 156.341 244.963 153.947 245.32 151.594Z" fill="black"/>
<path d="M247.578 151.594C247.935 153.947 247.935 156.341 247.578 158.694C247.223 156.341 247.223 153.947 247.578 151.594Z" fill="black"/>
<path d="M242.14 151.594C242.495 153.947 242.495 156.341 242.14 158.694C241.783 156.341 241.783 153.947 242.14 151.594Z" fill="black"/>
<path d="M221.605 151.594C221.963 153.947 221.963 156.341 221.605 158.694C221.251 156.341 221.251 153.947 221.605 151.594Z" fill="black"/>
</g>
<path d="M211.501 141.754H251.68V132.877H211.501V141.754Z" fill="white"/>
<g opacity="0.1">
<path d="M213.309 133.835C213.663 136.19 213.663 138.585 213.309 140.941C212.951 138.585 212.951 136.19 213.309 133.835Z" fill="black"/>
<path d="M216.318 133.835C216.675 136.19 216.675 138.586 216.318 140.941C215.963 138.586 215.963 136.19 216.318 133.835Z" fill="black"/>
<path d="M217.763 133.835C218.117 136.19 218.117 138.586 217.763 140.941C217.405 138.586 217.405 136.19 217.763 133.835Z" fill="black"/>
<path d="M225.785 133.835C226.142 136.19 226.142 138.586 225.785 140.941C225.43 138.586 225.43 136.19 225.785 133.835Z" fill="black"/>
<path d="M227.955 133.835C228.312 136.19 228.312 138.586 227.955 140.941C227.6 138.586 227.6 136.19 227.955 133.835Z" fill="black"/>
<path d="M236.93 133.835C237.287 136.19 237.287 138.586 236.93 140.941C236.575 138.586 236.575 136.19 236.93 133.835Z" fill="black"/>
<path d="M239.007 133.835C239.362 136.19 239.362 138.586 239.007 140.941C238.649 138.586 238.649 136.19 239.007 133.835Z" fill="black"/>
<path d="M242.813 133.835C243.171 136.19 243.171 138.586 242.813 140.941C242.459 138.586 242.459 136.19 242.813 133.835Z" fill="black"/>
<path d="M235.2 133.835C235.555 136.19 235.555 138.586 235.2 140.941C234.843 138.586 234.843 136.19 235.2 133.835Z" fill="black"/>
<path d="M220.414 133.835C220.769 136.19 220.769 138.586 220.414 140.941C220.057 138.586 220.057 136.19 220.414 133.835Z" fill="black"/>
<path d="M230.819 133.835C231.174 136.19 231.174 138.586 230.819 140.941C230.461 138.586 230.461 136.19 230.819 133.835Z" fill="black"/>
<path d="M232.31 133.835C232.665 136.19 232.665 138.586 232.31 140.941C231.953 138.586 231.953 136.19 232.31 133.835Z" fill="black"/>
<path d="M247.78 133.835C248.135 136.19 248.135 138.586 247.78 140.941C247.423 138.586 247.423 136.19 247.78 133.835Z" fill="black"/>
<path d="M250.022 133.835C250.38 136.19 250.38 138.586 250.022 140.941C249.668 138.586 249.668 136.19 250.022 133.835Z" fill="black"/>
<path d="M244.584 133.835C244.939 136.19 244.939 138.586 244.584 140.941C244.227 138.586 244.227 136.19 244.584 133.835Z" fill="black"/>
<path d="M224.05 133.835C224.407 136.19 224.407 138.586 224.05 140.941C223.695 138.586 223.695 136.19 224.05 133.835Z" fill="black"/>
</g>
<path opacity="0.1" d="M211.501 141.754V139.863L251.68 138.6V141.754H211.501Z" fill="black"/>
<path d="M266.036 146.653C264.814 152.697 239.742 176.81 239.742 176.81L257.221 197.008C257.221 197.008 292.816 161.475 290.962 148.124C289.341 136.507 271.955 89.8086 271.955 89.8086H251.918C251.918 89.8086 267.263 140.713 266.036 146.653Z" fill="#37474F"/>
<path d="M268.548 143.706C268.263 142.199 267.936 140.697 267.615 139.195C266.963 136.129 266.272 133.07 265.544 130.018C264.104 123.952 262.542 117.934 260.857 111.964C259.143 105.962 257.335 99.9698 255.258 94.0865C254.999 93.3562 254.74 92.6312 254.466 91.9061C254.466 91.8543 254.362 91.8751 254.378 91.932C256.18 97.8309 258.039 103.709 259.733 109.639C261.427 115.569 262.975 121.483 264.441 127.444C265.176 130.438 265.865 133.447 266.512 136.456C266.858 137.933 267.18 139.413 267.481 140.894C267.871 142.398 268.151 143.928 268.32 145.472C268.376 146.943 267.964 148.393 267.144 149.615C266.388 150.848 265.502 152.003 264.648 153.163C262.934 155.488 246.609 173.682 246.081 174.174C246.045 174.216 246.081 174.273 246.149 174.236C248.339 172.268 262.203 157.275 263.949 154.955C264.819 153.805 265.67 152.642 266.502 151.464C267.333 150.397 268.005 149.214 268.496 147.953C268.882 146.566 268.9 145.102 268.548 143.706Z" fill="#263238"/>
<path d="M270.044 89.7878C269.261 93.0838 268.685 96.4256 268.32 99.7936C267.9 103.994 267.377 107.707 266.818 108.168C266.259 108.629 263.016 110.726 261.944 111.379C261.944 111.379 271.831 141.339 274.374 151.324C278.072 165.826 286.928 209.246 286.928 209.246H263.338C263.338 209.246 256.165 167.892 253.026 154.111C250.338 142.292 240.037 106.837 240.037 106.837C238.948 104.102 238.459 101.165 238.603 98.2244C238.747 95.284 239.52 92.4087 240.871 89.793C240.871 89.793 270.044 89.7671 270.044 89.7878Z" fill="#37474F"/>
<path d="M268.491 106.987C266.198 108.246 264.02 109.704 261.981 111.343C261.968 111.356 261.96 111.374 261.959 111.392C261.957 111.411 261.962 111.429 261.972 111.445C261.982 111.46 261.997 111.472 262.015 111.478C262.032 111.484 262.051 111.484 262.069 111.477C264.275 110.095 266.533 108.748 268.662 107.246C268.693 107.223 268.715 107.188 268.722 107.148C268.729 107.109 268.721 107.069 268.699 107.036C268.677 107.003 268.643 106.979 268.604 106.97C268.566 106.961 268.525 106.967 268.491 106.987Z" fill="#263238"/>
<path d="M266.688 90.684C266.688 90.6063 266.523 90.6063 266.538 90.684C266.947 93.3218 267.224 95.9785 267.367 98.6441C267.445 99.8819 267.512 106.76 265.321 106.599C264.959 106.573 264.72 106.252 264.586 105.729C264.486 105.031 264.472 104.323 264.544 103.621C264.544 102.176 264.544 100.731 264.43 99.2915C264.263 96.6033 263.821 93.9395 263.11 91.3417C263.103 91.3257 263.092 91.3124 263.076 91.3043C263.061 91.2962 263.043 91.2938 263.027 91.2975C263.01 91.3013 262.995 91.3109 262.984 91.3247C262.974 91.3385 262.969 91.3556 262.97 91.3728C263.605 95.0367 263.961 98.7433 264.037 102.461C264.037 104.253 263.571 107.024 265.44 107.008C267.31 106.993 267.869 102.394 267.911 101.151C267.957 97.6237 267.546 94.1054 266.688 90.684Z" fill="#263238"/>
<path d="M265.409 106.78C265.289 107.264 265.202 107.755 265.15 108.251C265.078 108.64 265.078 109.038 265.15 109.427C265.15 109.499 265.269 109.489 265.3 109.427C265.467 109.046 265.575 108.643 265.621 108.23C265.715 107.775 265.818 107.324 265.896 106.863C265.907 106.798 265.892 106.732 265.854 106.679C265.816 106.625 265.759 106.589 265.694 106.578C265.629 106.567 265.563 106.582 265.51 106.62C265.456 106.658 265.42 106.716 265.409 106.78Z" fill="#263238"/>
<path d="M276.865 160.279C276.078 156.364 275.021 152.511 273.954 148.652C271.81 140.91 269.293 133.281 266.766 125.652L264.591 119.06C264.228 117.962 262.447 112.037 262.229 111.472C262.229 111.46 262.224 111.448 262.216 111.439C262.207 111.431 262.195 111.426 262.183 111.426C262.17 111.426 262.158 111.431 262.15 111.439C262.141 111.448 262.136 111.46 262.136 111.472C262.654 113.492 263.343 116.434 263.933 118.433C264.523 120.432 265.15 122.369 265.766 124.332C266.968 128.195 268.195 132.054 269.366 135.928C271.681 143.582 273.975 151.237 275.855 159.015C276.373 161.196 276.891 163.371 277.409 165.562C277.927 167.752 278.3 169.943 278.755 172.134C278.755 172.191 278.869 172.175 278.864 172.134C278.465 168.172 277.652 164.225 276.865 160.279Z" fill="#263238"/>
<path d="M262.198 180.783C260.898 173.314 259.339 165.883 257.62 158.513C255.901 151.143 253.958 143.722 251.83 136.404C249.701 129.086 247.35 121.841 244.823 114.652C243.55 111.266 242.48 107.807 241.617 104.294C240.84 100.804 240.447 97.0437 241.26 93.5116C241.462 92.6177 241.73 91.74 242.062 90.8859C242.088 90.8289 242 90.7771 241.974 90.8393C239.136 97.4528 240.98 104.683 243.14 111.203C244.326 114.777 245.589 118.319 246.765 121.898C247.963 125.571 249.111 129.259 250.209 132.96C252.384 140.304 254.38 147.684 256.196 155.1C258.012 162.516 259.626 169.996 261.038 177.541C262.462 185.091 263.659 192.668 264.876 200.25C265.031 201.234 265.155 202.229 265.285 203.218C265.285 203.275 265.383 203.275 265.373 203.218C264.482 195.724 263.493 188.245 262.198 180.783Z" fill="#263238"/>
<path d="M244.124 103.59C244.688 103.378 245.32 103.326 245.9 103.165C247.689 102.683 249.363 101.848 250.825 100.71C251.736 99.926 252.437 98.9276 252.866 97.805C253.125 97.2042 254.249 94.0295 254.259 94.0036C254.269 93.9777 254.44 93.957 254.435 94.0347C254.409 94.4646 253.767 97.1783 253.549 97.862C253.191 99.1527 252.472 100.315 251.478 101.213C250.446 102.069 249.267 102.729 247.997 103.16C247.351 103.391 246.686 103.564 246.009 103.678C245.383 103.825 244.735 103.857 244.098 103.771C244.01 103.761 244.046 103.621 244.124 103.59Z" fill="#263238"/>
<path d="M275.638 101.513C275.326 101.383 275.006 101.274 274.679 101.187C274.337 101.047 274.009 100.873 273.701 100.669C273.039 100.243 272.445 99.7189 271.94 99.1153C271.358 98.3372 270.923 97.4598 270.655 96.5258C270.474 96.0079 269.987 93.0663 269.977 93.0456C269.967 93.0249 269.879 93.0093 269.889 93.0767C269.942 94.2607 270.081 95.4394 270.303 96.6035C270.551 97.683 271.001 98.7058 271.629 99.6177C272.157 100.302 272.822 100.868 273.582 101.28C273.921 101.464 274.283 101.602 274.659 101.689C274.982 101.795 275.33 101.795 275.653 101.689C275.71 101.663 275.679 101.539 275.638 101.513Z" fill="#263238"/>
<path d="M261.566 59.2579C266.709 68.4351 277.621 80.0463 281.764 79.8029C283.737 79.689 287.29 79.9065 289.714 77.4568C295.002 72.1121 298 65.5089 299.72 60.8116C300.393 58.9731 290.159 51.4014 288.891 53.069C285.918 56.9688 282.676 64.4369 282.096 64.4317C279.962 64.4317 271.282 57.9735 265.047 53.6698C258.039 48.8533 259.521 55.6016 261.566 59.2579Z" fill="#FBD3C6"/>
<path d="M288.606 34.8389L283.82 50.1428C283.629 50.5882 283.82 50.9715 284.286 50.9922L292.293 51.4428C292.539 51.439 292.778 51.3654 292.984 51.2306C293.189 51.0958 293.352 50.9053 293.453 50.6814L298.233 35.3827C298.425 34.9322 298.233 34.5541 297.773 34.5282L289.761 34.0776C289.516 34.0824 289.277 34.1564 289.073 34.2911C288.869 34.4259 288.707 34.6158 288.606 34.8389Z" fill="#37474F"/>
<path d="M289.553 34.8856L284.773 50.1843C284.719 50.268 284.689 50.3647 284.685 50.4643C284.682 50.5638 284.705 50.6626 284.752 50.75C284.8 50.8375 284.871 50.9105 284.956 50.9613C285.042 51.0121 285.14 51.0389 285.239 51.0388L293.246 51.4894C293.491 51.4847 293.729 51.4106 293.934 51.2759C294.138 51.1411 294.3 50.9512 294.401 50.7281L299.181 35.4242C299.373 34.9788 299.181 34.5956 298.715 34.5748L290.708 34.1243C290.464 34.1302 290.226 34.2047 290.022 34.3393C289.818 34.4739 289.655 34.6632 289.553 34.8856Z" fill="#455A64"/>
<path d="M291.713 35.7193C291.702 35.8541 291.652 35.9828 291.568 36.0889C291.484 36.1951 291.371 36.274 291.242 36.3157C291.114 36.3573 290.976 36.3599 290.845 36.3231C290.715 36.2863 290.599 36.2116 290.511 36.1087C290.424 36.0058 290.368 35.8791 290.353 35.7448C290.337 35.6105 290.361 35.4745 290.423 35.3541C290.485 35.2337 290.58 35.1342 290.699 35.0683C290.817 35.0024 290.952 34.973 291.086 34.9839C291.267 34.9997 291.433 35.0857 291.55 35.2233C291.668 35.3609 291.726 35.539 291.713 35.7193Z" fill="#263238"/>
<path d="M300.952 49.6354C300.207 45.601 299.399 44.6791 300.569 40.9399C301.341 38.4851 300.108 36.9366 298.208 38.8217C295.1 41.9291 294.976 47.3152 295.473 49.1797L300.952 49.6354Z" fill="#FBD3C6"/>
<path d="M299.487 61.3915C299.487 61.3915 301.615 55.9743 301.248 51.5981C300.989 48.5735 299.694 42.048 291.522 38.1327C289.585 37.2005 286.161 37.2471 288.772 39.9195C290.631 41.815 292.397 42.4624 293.257 43.7623C293.257 43.7623 288.911 44.3371 288.052 46.3155C287.302 48.0455 286.675 49.8263 286.177 51.6447C286.49 51.8124 286.813 51.9594 287.145 52.0849C287.145 52.0849 286.4 53.9649 287.663 56.777L299.487 61.3915Z" fill="#FBD3C6"/>
<path d="M300.538 48.7497C299.394 47.6414 296.913 45.3368 294.256 44.1508C291.283 42.8405 285.214 41.1055 284.261 43.3066C283.567 44.9224 285.814 45.7873 285.814 45.7873C285.814 45.7873 283.152 45.6009 282.842 47.196C282.562 48.6513 284.349 49.2158 284.349 49.2158C284.349 49.2158 282.717 49.3815 282.717 50.8317C282.717 52.5822 286.135 51.9503 287.663 53.7215C288.026 54.11 300.538 48.7497 300.538 48.7497Z" fill="#FBD3C6"/>
<path d="M293.386 47.5224C291.124 46.1789 288.506 45.5591 285.882 45.746C285.814 45.746 285.788 45.8081 285.85 45.8133C288.42 46.0857 290.946 46.6683 293.376 47.5483C293.376 47.5483 293.401 47.5327 293.386 47.5224Z" fill="#263238"/>
<path d="M291.972 50.4846C290.822 49.8527 287.311 48.7289 284.375 49.1588C284.307 49.1588 284.281 49.2261 284.344 49.2313C286.924 49.3684 289.479 49.7993 291.962 50.5156C291.962 50.5156 291.988 50.4846 291.972 50.4846Z" fill="#263238"/>
<path d="M286.441 56.1814L298.663 65.5502C298.663 65.5502 292.226 77.4152 287.446 79.1502C282.665 80.8851 281.158 80.3672 279.822 80.1083C278.486 79.8493 268.428 71.8944 261.696 59.6461C255.351 48.0763 262.732 51.5514 268.237 55.5703C271.344 57.8594 281.371 63.81 281.759 63.6806C282.148 63.5511 286.441 56.1814 286.441 56.1814Z" fill="#34260E"/>
<path opacity="0.2" d="M286.441 56.1814L298.663 65.5502C298.663 65.5502 292.226 77.4152 287.446 79.1502C282.665 80.8851 281.158 80.3672 279.822 80.1083C278.486 79.8493 268.428 71.8944 261.696 59.6461C255.351 48.0763 262.732 51.5514 268.237 55.5703C271.344 57.8594 281.371 63.81 281.759 63.6806C282.148 63.5511 286.441 56.1814 286.441 56.1814Z" fill="#050400"/>
<path d="M285.509 58.9472C287.42 60.3611 289.289 61.8267 291.143 63.3079C292.055 64.033 295.556 67.0575 296.566 67.912C296.602 67.9483 296.514 68.057 296.467 68.026C295.478 67.3061 291.78 64.3489 290.884 63.6083C289.056 62.1012 287.259 60.5786 285.467 58.999C285.46 58.9935 285.456 58.9855 285.455 58.9768C285.454 58.968 285.457 58.9593 285.462 58.9524C285.468 58.9455 285.476 58.9411 285.484 58.9401C285.493 58.9392 285.502 58.9417 285.509 58.9472Z" fill="#263238"/>
<path opacity="0.1" d="M277.611 78.7102C273.986 75.898 266.87 69.0307 261.717 59.6463C258.34 53.4885 258.858 51.593 260.909 51.7691C262.69 54.5813 272.359 70.2063 277.611 78.7102Z" fill="#050400"/>
<path d="M238.675 96.7331C238.758 96.8263 274.41 96.5725 274.752 96.2152C275.203 95.6973 266.75 57.1294 263.042 52.3958C262.245 51.36 259.66 51.1218 257.465 51.417C256.894 51.4914 256.331 51.6144 255.781 51.7847H255.724C255.278 51.9171 254.859 52.1275 254.487 52.4062C248.427 57.3469 243.461 74.4479 242.311 79.5803C240.405 88.0375 238.375 96.4016 238.675 96.7331Z" fill="#EBEBEB"/>
<path d="M255.341 51.8572C255.341 51.8572 257.667 67.7359 258.216 71.8429C258.764 75.9498 258.241 97.6911 258.241 97.6911L235.863 99.5815C235.863 99.5815 240.55 85.1425 240.602 84.2258C240.602 84.2258 244.315 66.8814 248.142 59.7189C249.851 56.5404 252.325 53.8383 255.341 51.8572Z" fill="#34260E"/>
<path opacity="0.2" d="M255.341 51.8572C255.341 51.8572 257.667 67.7359 258.216 71.8429C258.764 75.9498 258.241 97.6911 258.241 97.6911L235.863 99.5815C235.863 99.5815 240.55 85.1425 240.602 84.2258C240.602 84.2258 244.315 66.8814 248.142 59.7189C249.851 56.5404 252.325 53.8383 255.341 51.8572Z" fill="#050400"/>
<path d="M252.757 53.8459L246.024 98.7218L235.873 99.5815C235.873 99.5815 240.566 85.1425 240.612 84.231C240.612 84.231 244.331 66.8814 248.158 59.7137C249.345 57.51 250.901 55.5255 252.757 53.8459Z" fill="#37474F"/>
<path d="M263.275 52.1885C263.275 52.1885 265.818 68.1915 266.088 69.5173C266.357 70.8432 270.231 96.9659 270.231 96.9659L275.834 97.085L272.794 85.1734C272.794 85.1734 265.979 55.5755 263.275 52.1885Z" fill="#34260E"/>
<path opacity="0.2" d="M263.275 52.1885C263.275 52.1885 265.818 68.1915 266.088 69.5173C266.357 70.8432 270.231 96.9659 270.231 96.9659L275.834 97.085L272.794 85.1734C272.794 85.1734 265.979 55.5755 263.275 52.1885Z" fill="#050400"/>
<path d="M261.53 57.2691C259.826 57.4607 256.61 55.0939 255.709 52.608C255.652 52.4371 256.154 50.8057 256.677 48.7963C256.993 47.5741 257.309 46.2068 257.511 44.938C257.553 44.679 265.161 48.1282 265.161 48.1282C264.45 49.6418 263.929 51.2367 263.607 52.8773C263.584 53.0489 263.575 53.2222 263.581 53.3952V53.4833C263.596 54.488 263.353 57.0568 261.53 57.2691Z" fill="#FBD3C6"/>
<path d="M263.597 53.3849C263.597 53.4108 263.597 53.4419 263.597 53.4729C263.322 53.4664 263.048 53.4387 262.778 53.3901C258.117 52.5459 257.806 46.4865 257.801 44.9639C259.184 45.3937 265.171 48.1075 265.171 48.1075C264.46 49.6227 263.938 51.2194 263.617 52.8618C263.595 53.0352 263.588 53.2103 263.597 53.3849Z" fill="#263238"/>
<path d="M257.594 34.8131C256.377 37.5373 256.843 45.9065 258.63 47.9884C261.219 51.0026 265.968 51.8571 268.661 48.6255C271.251 45.5181 270.469 34.5956 268.423 32.6535C265.414 29.7947 259.401 30.8046 257.594 34.8131Z" fill="#FBD3C6"/>
<path d="M265 41.0591C265 41.0591 264.953 41.0591 264.959 41.1057C264.99 41.6702 264.933 42.3227 264.441 42.5247V42.5558C265.057 42.4522 265.124 41.5873 265 41.0591Z" fill="#263238"/>
<path d="M264.482 40.4789C263.571 40.4323 263.545 42.2553 264.389 42.3019C265.233 42.3485 265.249 40.5203 264.482 40.4789Z" fill="#263238"/>
<path d="M268.273 41.0796C268.273 41.0796 268.315 41.0796 268.315 41.1314C268.315 41.6959 268.356 42.3433 268.864 42.5401C268.864 42.5401 268.864 42.5763 268.864 42.5711C268.237 42.4779 268.159 41.613 268.273 41.0796Z" fill="#263238"/>
<path d="M268.786 40.4996C269.692 40.4426 269.739 42.2656 268.9 42.3174C268.061 42.3692 268.024 40.5462 268.786 40.4996Z" fill="#263238"/>
<path d="M263.778 39.6348C264.018 39.5686 264.255 39.4891 264.487 39.3966C264.75 39.3481 264.989 39.2132 265.166 39.0133C265.208 38.9398 265.225 38.8548 265.214 38.7708C265.204 38.6869 265.167 38.6085 265.109 38.5472C264.972 38.4451 264.811 38.3811 264.642 38.362C264.473 38.3429 264.301 38.3693 264.145 38.4384C263.809 38.5296 263.517 38.7417 263.327 39.034C263.288 39.1033 263.269 39.1827 263.274 39.2624C263.279 39.3421 263.307 39.4185 263.355 39.4824C263.403 39.5462 263.469 39.5947 263.544 39.6218C263.619 39.6488 263.7 39.6534 263.778 39.6348Z" fill="#263238"/>
<path d="M269.501 39.6088C269.257 39.5584 269.016 39.4927 268.781 39.412C268.517 39.377 268.271 39.257 268.082 39.0702C268.027 38.9974 268 38.9078 268.004 38.8169C268.009 38.7261 268.046 38.6398 268.107 38.573C268.237 38.4629 268.394 38.3894 268.561 38.3603C268.729 38.3311 268.901 38.3474 269.06 38.4073C269.403 38.4755 269.707 38.6718 269.91 38.9563C269.962 39.0225 269.992 39.1033 269.997 39.1874C270.001 39.2716 269.979 39.3551 269.935 39.4265C269.89 39.4979 269.824 39.5537 269.746 39.5864C269.669 39.619 269.583 39.6269 269.501 39.6088Z" fill="#263238"/>
<path d="M265.026 44.4926C265.165 44.7181 265.35 44.9124 265.569 45.063C265.787 45.2136 266.034 45.3174 266.295 45.3678C266.523 45.4128 266.757 45.4267 266.989 45.4092C267.032 45.4147 267.075 45.4147 267.118 45.4092C267.159 45.4142 267.201 45.4142 267.242 45.4092C267.273 45.4032 267.3 45.3881 267.322 45.3659C267.343 45.3436 267.357 45.3154 267.362 45.2849C267.364 45.266 267.364 45.2469 267.362 45.228V45.1814C267.362 44.7463 267.362 44.0834 267.362 44.0834C267.517 44.1663 268.325 44.5392 268.315 44.3113C268.29 42.3518 268.068 40.3999 267.652 38.485C267.652 38.4228 267.543 38.4332 267.548 38.485C267.548 40.2976 267.885 42.1102 267.926 43.9177C267.641 43.779 267.338 43.6814 267.025 43.6277C266.963 43.6277 267.108 44.9069 267.087 45.0985C266.73 45.129 266.371 45.0878 266.031 44.9776C265.69 44.8673 265.375 44.6901 265.104 44.4563C265.036 44.4097 265 44.446 265.026 44.4926Z" fill="#263238"/>
<path d="M266.735 45.1866C266.491 45.4924 266.174 45.7312 265.813 45.8806C265.612 45.9555 265.394 45.9663 265.186 45.9117C264.736 45.7874 264.731 45.3938 264.819 45.0157C264.87 44.8356 264.941 44.6618 265.031 44.4978C265.511 44.9029 266.108 45.1442 266.735 45.1866Z" fill="#263238"/>
<path d="M265.813 45.8805C265.612 45.9554 265.394 45.9663 265.186 45.9116C264.736 45.7873 264.731 45.3937 264.819 45.0156C265.057 45.0276 265.285 45.1194 265.465 45.2762C265.646 45.433 265.768 45.6458 265.813 45.8805Z" fill="#FF9BBC"/>
<path d="M258.594 42.4159C260.194 42.535 260.282 39.7384 260.282 39.7384C260.282 39.7384 263.519 39.4432 264.094 35.3259C264.094 35.3259 268.631 37.211 271.169 34.9582C273.706 32.7053 267.699 26.4025 259.961 31.5556C259.961 31.5556 256.414 31.9544 255.709 34.7873C255.005 37.6202 256.678 42.2761 258.594 42.4159Z" fill="#263238"/>
<path d="M263.016 34.8493C263.014 34.8414 263.008 34.8345 263.001 34.8297C262.994 34.8249 262.986 34.8223 262.978 34.8223C262.969 34.8223 262.961 34.8249 262.954 34.8297C262.947 34.8345 262.942 34.8414 262.939 34.8493C263.296 37.62 261.385 40.0283 258.469 39.6502C258.451 39.6506 258.434 39.6573 258.42 39.6691C258.407 39.6808 258.398 39.6969 258.395 39.7147C258.392 39.7324 258.395 39.7506 258.404 39.7662C258.413 39.7819 258.427 39.7939 258.443 39.8004C261.307 40.4685 264.161 37.734 263.016 34.8493Z" fill="#263238"/>
<path d="M265.927 29.6238C266.917 29.7791 267.878 30.0847 268.776 30.5301C270.096 31.25 271.769 33.0212 270.718 34.6111C269.273 36.7863 265.906 35.968 263.855 35.3051C263.829 35.2928 263.798 35.2915 263.77 35.3017C263.743 35.3119 263.72 35.3327 263.708 35.3595C263.696 35.3863 263.694 35.4169 263.704 35.4446C263.715 35.4722 263.735 35.4947 263.762 35.5071C265.803 36.5688 270.148 37.0919 271.199 34.3833C272.37 31.395 268.107 29.8102 265.927 29.6238Z" fill="#263238"/>
<path d="M258.816 41.8357C258.816 41.8357 257.263 38.9872 255.968 39.5207C254.673 40.0541 255.683 44.0471 257.04 44.6996C257.208 44.7978 257.395 44.861 257.588 44.8855C257.782 44.91 257.978 44.8952 258.166 44.842C258.353 44.7888 258.528 44.6983 258.68 44.576C258.832 44.4536 258.957 44.3019 259.049 44.1299L258.816 41.8357Z" fill="#FBD3C6"/>
<path d="M256.279 40.6445C256.279 40.6445 256.248 40.6445 256.279 40.6808C257.226 41.1987 257.651 42.1568 257.915 43.1512C257.868 43.0457 257.799 42.9518 257.712 42.8758C257.625 42.7998 257.522 42.7437 257.411 42.7112C257.301 42.6787 257.184 42.6706 257.07 42.6876C256.956 42.7045 256.846 42.7461 256.75 42.8093C256.724 42.8093 256.75 42.8663 256.75 42.8663C256.93 42.828 257.118 42.8469 257.287 42.9202C257.456 42.9935 257.597 43.1177 257.692 43.2755C257.849 43.5391 257.978 43.8186 258.076 44.1093C258.112 44.2025 258.278 44.1766 258.252 44.0678C258.417 42.799 257.62 40.9294 256.279 40.6445Z" fill="#263238"/>
<path d="M250.261 56.539C242.927 69.1912 232.927 95.345 230.943 99.4986C229.602 102.316 244.336 109.748 244.963 107.697C245.76 105.071 255.031 74.132 255.699 59.0456C256.004 52.0384 252.607 52.489 250.261 56.539Z" fill="#FBD3C6"/>
<path d="M245.361 106.283C245.014 108.836 243.29 113.984 241.99 114.766C240.69 115.548 233.916 115.382 230.498 115.382C227.08 115.382 226.406 114.429 226.463 113.254C226.52 112.078 233.714 111.855 233.714 111.855C233.714 111.855 224.133 114.6 221.724 115.046C219.316 115.491 213.759 116.9 212.956 114.901C212.594 114 214.117 113.088 214.117 113.088C214.117 113.088 211.786 113.767 211.418 112.606C210.994 111.291 212.848 110.566 212.848 110.566C212.848 110.566 211.392 110.856 211.356 109.784C211.284 107.386 220.393 106.205 220.393 106.205C220.393 106.205 213.417 109.603 213.195 107.64C212.884 104.931 227.178 101.943 228.669 100.772C229.752 99.8694 230.765 98.886 231.699 97.8308L245.361 106.283Z" fill="#FBD3C6"/>
<path d="M226.515 113.85C226.49 113.683 226.507 113.513 226.563 113.354C226.619 113.195 226.712 113.052 226.836 112.938C227.083 112.713 227.365 112.53 227.67 112.394C228.302 112.124 228.957 111.913 229.628 111.762C230.974 111.421 232.357 111.177 233.734 110.82C232.313 110.8 230.895 110.96 229.514 111.296C228.809 111.457 228.131 111.717 227.499 112.068C227.179 112.25 226.899 112.495 226.676 112.788C226.559 112.936 226.482 113.111 226.454 113.297C226.426 113.484 226.447 113.674 226.515 113.85Z" fill="#263238"/>
<path d="M214.096 113.088C215.08 112.845 216.053 112.57 217.022 112.285C217.99 112 218.954 111.71 219.922 111.42L222.807 110.514C223.77 110.214 224.728 109.913 225.702 109.623C224.694 109.729 223.694 109.902 222.708 110.141C221.719 110.369 220.751 110.659 219.782 110.944C218.814 111.229 217.856 111.565 216.908 111.923C215.96 112.28 215.018 112.658 214.096 113.088Z" fill="#263238"/>
<path d="M223.387 107.231C222.459 107.294 221.537 107.422 220.627 107.614C219.713 107.796 218.811 108.027 217.923 108.308C217.033 108.584 216.16 108.911 215.308 109.287C214.451 109.652 213.621 110.079 212.827 110.566C213.707 110.26 214.562 109.924 215.442 109.629C216.323 109.333 217.183 109.038 218.063 108.769C218.943 108.5 219.829 108.251 220.715 107.971C221.6 107.692 222.491 107.453 223.387 107.231Z" fill="#263238"/>
<path d="M221.978 104.947C218.971 105.207 216.074 106.197 213.536 107.831C214.95 107.314 216.328 106.796 217.737 106.33C219.145 105.863 220.549 105.382 221.978 104.947Z" fill="#263238"/>
<path d="M230.083 98.8406L246.237 106.733C246.237 106.733 254.673 73.2461 255.714 61.5106C256.755 49.775 252.249 52.4733 249.132 57.9837C244.875 65.5036 230.083 98.8406 230.083 98.8406Z" fill="#34260E"/>
<path opacity="0.2" d="M230.083 98.8406L246.237 106.733C246.237 106.733 254.673 73.2461 255.714 61.5106C256.755 49.775 252.249 52.4733 249.132 57.9837C244.875 65.5036 230.083 98.8406 230.083 98.8406Z" fill="#050400"/>
<path d="M245.838 102.632C243.642 101.736 234.77 97.7532 232.89 96.764C232.766 96.6967 232.776 96.5983 232.921 96.6552C239.576 99.167 243.74 101.555 245.869 102.544C245.881 102.548 245.89 102.556 245.895 102.568C245.901 102.579 245.901 102.592 245.897 102.603C245.893 102.615 245.885 102.625 245.873 102.63C245.862 102.635 245.849 102.636 245.838 102.632Z" fill="#263238"/>
<path d="M248.241 98.4163C248.484 96.6865 252.617 77.0167 252.964 75.3077C253.311 73.5986 253.684 71.8947 254.088 70.2012L254.694 67.6531C254.917 66.809 255.119 65.9648 255.357 65.1206C255.243 65.9855 255.093 66.8452 254.963 67.7101L254.507 70.2996C254.202 72.019 253.86 73.7281 253.508 75.432C253.156 77.1358 248.707 96.7331 248.241 98.4163Z" fill="#263238"/>
<path d="M254.435 69.5692C254.561 69.1238 254.735 68.6932 254.953 68.2848C255.164 67.8724 255.421 67.4851 255.719 67.1299C255.593 67.5753 255.419 68.0059 255.201 68.4143C254.99 68.8266 254.733 69.214 254.435 69.5692Z" fill="#263238"/>
<path d="M295.224 22.223C295.018 24.1247 294.289 25.9321 293.118 27.4449C291.948 28.9577 290.381 30.1167 288.592 30.7935C286.803 31.4703 284.861 31.6385 282.982 31.2794C281.103 30.9202 279.361 30.0478 277.947 28.7589L272.768 29.515L275.358 25.0456C274.747 23.5854 274.478 22.0045 274.574 20.4245C274.669 18.8444 275.125 17.3072 275.906 15.9308C276.688 14.5544 277.775 13.3756 279.084 12.4847C280.392 11.5939 281.887 11.0148 283.454 10.7919C285.022 10.569 286.619 10.7083 288.124 11.199C289.629 11.6897 291.001 12.5188 292.136 13.6226C293.27 14.7264 294.137 16.0756 294.669 17.5665C295.2 19.0574 295.384 20.6503 295.204 22.223H295.224Z" fill="white"/>
<path d="M295.224 22.223C295.028 24.1255 294.311 25.9371 293.153 27.459C292.863 27.8371 292.55 28.1968 292.215 28.5362C291.874 28.8672 291.51 29.1751 291.128 29.4581C290.367 30.0379 289.526 30.5053 288.632 30.846C287.292 31.3743 285.855 31.6109 284.416 31.54C283.936 31.5287 283.458 31.4785 282.987 31.3898C281.082 31.04 279.312 30.1667 277.875 28.8677L277.999 28.9039L272.82 29.6963L272.442 29.7533L272.634 29.4218L275.223 24.9472V25.1233C274.617 23.6422 274.359 22.0415 274.47 20.445C274.58 18.8484 275.056 17.2985 275.86 15.915C276.665 14.5357 277.772 13.3564 279.097 12.4658C280.42 11.591 281.924 11.0267 283.497 10.815C285.069 10.6034 286.668 10.7499 288.176 11.2436C289.671 11.7506 291.034 12.5858 292.164 13.6881C293.285 14.7873 294.143 16.1262 294.673 17.6044C295.203 19.0826 295.392 20.6616 295.224 22.223ZM295.224 22.223C295.39 20.6666 295.196 19.0928 294.658 17.6232C294.119 16.1536 293.25 14.8273 292.117 13.7468C290.985 12.6664 289.619 11.8605 288.126 11.3915C286.633 10.9224 285.051 10.8027 283.504 11.0416C281.973 11.2711 280.513 11.8467 279.237 12.7248C277.97 13.6108 276.909 14.761 276.13 16.0963C275.38 17.4317 274.939 18.9183 274.84 20.4466C274.746 21.9824 274.996 23.5199 275.57 24.9472L275.607 25.0404L275.555 25.1284L272.965 29.5875L272.779 29.3131L277.958 28.588H278.03L278.082 28.6346C279.462 29.9276 281.174 30.81 283.028 31.1827C283.49 31.2781 283.96 31.3353 284.431 31.3536C284.902 31.3872 285.375 31.3872 285.845 31.3536C286.789 31.2796 287.718 31.0757 288.606 30.7476C289.499 30.4256 290.338 29.9718 291.097 29.4011C291.48 29.1202 291.845 28.8158 292.19 28.4896C292.525 28.1549 292.838 27.7985 293.127 27.4227C294.291 25.9153 295.017 24.1161 295.224 22.223Z" fill="white"/>
<path d="M283.738 27.0394L279.325 22.5699L280.806 21.1094L283.385 23.7145L288.74 15.3193L290.496 16.4432L283.738 27.0394Z" fill="#FFC727"/>
</g>
<defs>
<linearGradient id="paint0_linear_82_889" x1="44" y1="-81" x2="138.485" y2="233.554" gradientUnits="userSpaceOnUse">
<stop offset="0.165616" stop-color="#FFA502"/>
<stop offset="0.820086" stop-color="#FBCD22"/>
</linearGradient>
<clipPath id="clip0_82_889">
<rect width="304" height="152" rx="12" fill="white"/>
</clipPath>
</defs>
</svg>
