<svg width="208" height="222" viewBox="0 0 208 222" fill="none" xmlns="http://www.w3.org/2000/svg">
<path d="M125.761 41C104.455 41 104.419 71 125.761 71C147.103 71 147.103 41 125.761 41Z" fill="#EBEBEB"/>
<path d="M138.768 58.6967C137.641 63.6695 133.358 68 125.923 68C108.369 68 108.397 44 125.923 44C126.04 44 126.153 44 126.266 44C109.774 44.2892 109.856 67.016 126.59 67.016C133.42 67.0084 137.485 63.2075 138.768 58.6967Z" fill="#DBDBDB"/>
<path d="M125.526 47.0009C125.66 46.9966 125.79 47.0461 125.89 47.1389C125.989 47.2317 126.049 47.3607 126.058 47.4985V48.3343C127.475 48.4305 128.836 48.9357 129.987 49.7921C130.187 49.9359 130.297 50.0603 130.297 50.2702C130.287 50.4174 130.221 50.5546 130.114 50.6522C130.007 50.7497 129.866 50.7997 129.723 50.7911C129.577 50.7977 129.433 50.7446 129.324 50.6434C128.357 49.8847 127.206 49.4164 125.998 49.2906V55.1217C129.354 55.7864 130.768 56.9759 130.768 59.009C130.768 61.2171 128.803 62.7798 126.043 62.8614V64.498C126.032 64.6349 125.971 64.7625 125.873 64.8554C125.775 64.9484 125.646 65 125.513 65C125.38 65 125.251 64.9484 125.153 64.8554C125.055 64.7625 124.994 64.6349 124.983 64.498V62.8536C123.161 62.7358 121.422 62.0284 120.013 60.8322C119.941 60.7861 119.88 60.7222 119.837 60.6463C119.795 60.5703 119.771 60.4846 119.768 60.3968C119.78 60.2508 119.847 60.1152 119.954 60.0183C120.06 59.9213 120.199 59.8704 120.341 59.8759C120.48 59.8792 120.614 59.9329 120.718 60.0275C121.918 61.122 123.428 61.7874 125.025 61.9246V55.9769C121.714 55.2927 120.345 54.1459 120.345 52.0623C120.345 49.9787 122.287 48.3537 124.983 48.2915V47.5141C124.985 47.4433 125.001 47.3736 125.029 47.3091C125.058 47.2447 125.099 47.1868 125.149 47.139C125.2 47.0911 125.259 47.0542 125.324 47.0305C125.389 47.0068 125.458 46.9967 125.526 47.0009ZM125.04 54.9156V49.2284C122.898 49.2712 121.484 50.4801 121.484 51.9768C121.472 53.3957 122.193 54.2703 125.04 54.9156ZM125.998 56.1868V61.9362C128.207 61.8973 129.64 60.6884 129.64 59.1023C129.656 57.6679 128.882 56.7893 125.998 56.1868Z" fill="#DBDBDB"/>
<path d="M181.927 90.7097C162.351 100.736 177.168 129.749 196.775 119.712C216.383 109.675 201.535 80.6676 181.927 90.7097Z" fill="#DBDBDB"/>
<path d="M183.766 89.7672C165.121 99.3224 179.928 128.335 198.614 118.769C217.3 109.204 202.467 80.1964 183.766 89.7672Z" fill="#EBEBEB"/>
<path d="M203.928 101.171C205.481 106.671 203.928 112.938 197.35 116.299C181.844 124.243 169.539 100.166 185.024 92.2322L185.33 92.082C170.912 99.8505 182.652 122.591 197.438 115.02C203.472 111.933 205.114 106.278 203.928 101.171Z" fill="#DBDBDB"/>
<path d="M189.52 94.5061C189.661 94.4832 189.807 94.5164 189.924 94.5985C190.042 94.6806 190.124 94.8053 190.151 94.9463L190.312 95.8371C191.783 95.6883 193.266 95.9822 194.569 96.6812C194.797 96.8055 194.932 96.9195 194.973 97.1422C194.997 97.2932 194.96 97.4475 194.871 97.5716C194.782 97.6958 194.647 97.7797 194.497 97.8051C194.423 97.8201 194.347 97.8201 194.273 97.805C194.199 97.7898 194.129 97.7599 194.067 97.717C192.966 97.0896 191.706 96.7963 190.441 96.8729L191.591 103.114C195.108 103.212 196.77 104.227 197.164 106.413C197.588 108.779 195.905 110.815 193.134 111.405L193.45 113.145C193.477 113.287 193.445 113.434 193.363 113.553C193.281 113.672 193.155 113.754 193.013 113.78C192.871 113.806 192.724 113.774 192.605 113.692C192.486 113.61 192.404 113.484 192.378 113.342L192.057 111.576C190.163 111.774 188.257 111.331 186.645 110.317C186.561 110.279 186.486 110.221 186.429 110.148C186.371 110.075 186.332 109.989 186.314 109.898C186.295 109.787 186.31 109.672 186.355 109.569C186.4 109.466 186.475 109.378 186.569 109.317C186.664 109.255 186.774 109.222 186.887 109.223C187 109.223 187.11 109.256 187.205 109.318C188.588 110.262 190.253 110.703 191.923 110.566L190.773 104.206C187.293 104.072 185.687 103.093 185.283 100.866C184.879 98.6389 186.531 96.5362 189.24 95.9769L189.085 95.1275C189.064 94.9881 189.098 94.8462 189.179 94.7307C189.26 94.6152 189.382 94.5349 189.52 94.5061ZM190.555 103.077L189.457 96.9868C187.298 97.4218 186.107 98.9703 186.397 100.581C186.666 102.088 187.546 102.896 190.555 103.067V103.077ZM191.783 104.258L192.896 110.421C195.123 109.97 196.34 108.417 196.03 106.718C195.734 105.17 194.797 104.372 191.778 104.248L191.783 104.258Z" fill="#DBDBDB"/>
<path d="M138.689 1.21941C153.082 3.8338 149.284 25.395 134.857 22.7806C120.429 20.1662 124.275 -1.39498 138.689 1.21941Z" fill="#DBDBDB"/>
<path d="M137.783 0.209839C152.149 2.817 148.166 25.4019 133.769 22.7902C119.372 20.1785 123.377 -2.40183 137.783 0.209839Z" fill="#EBEBEB"/>
<path d="M126.768 11.9665C126.847 16.0001 129.132 19.9072 134.126 20.8251C145.913 23.0002 149.176 4.20674 137.406 2.0407L137.177 2C148.211 4.26101 145.05 22.0506 133.809 19.9795C129.243 19.1384 127.032 15.6565 126.768 11.9665Z" fill="#DBDBDB"/>
<path d="M136.128 4.00642C136.173 4.01521 136.216 4.0334 136.254 4.05993C136.293 4.08645 136.325 4.12079 136.351 4.16095C136.377 4.2011 136.395 4.24627 136.404 4.29385C136.413 4.34142 136.413 4.39046 136.404 4.4381L136.299 5.03814C137.201 5.29255 138.011 5.82762 138.627 6.57493C138.678 6.62171 138.717 6.68134 138.741 6.74843C138.765 6.81552 138.773 6.88794 138.764 6.95913C138.745 7.05978 138.689 7.14809 138.608 7.20473C138.528 7.26136 138.429 7.28171 138.335 7.26131C138.287 7.25418 138.241 7.23671 138.2 7.20999C138.159 7.18326 138.123 7.14783 138.095 7.1059C137.589 6.44952 136.914 5.96487 136.153 5.71157L135.415 9.91617C137.475 10.8227 138.229 11.8587 137.974 13.3308C137.694 14.9237 136.242 15.8 134.466 15.5108L134.259 16.685C134.252 16.7339 134.237 16.781 134.212 16.8233C134.188 16.8656 134.156 16.9023 134.119 16.9311C134.081 16.96 134.038 16.9804 133.993 16.9912C133.947 17.002 133.9 17.0029 133.855 16.9938C133.809 16.9848 133.766 16.966 133.727 16.9387C133.688 16.9113 133.655 16.8758 133.63 16.8345C133.604 16.7931 133.587 16.7467 133.578 16.698C133.57 16.6493 133.571 16.5994 133.582 16.5512L133.788 15.364C132.623 15.0342 131.595 14.2987 130.869 13.2747C130.816 13.2159 130.782 13.1411 130.771 13.0608C130.761 12.9804 130.774 12.8985 130.81 12.8266C130.845 12.7547 130.9 12.6964 130.969 12.6599C131.037 12.6233 131.114 12.6104 131.189 12.6228C131.283 12.6414 131.367 12.6969 131.424 12.7782C132.03 13.7048 132.919 14.3803 133.939 14.6906L134.685 10.4083C132.657 9.49312 131.927 8.49593 132.187 6.99367C132.446 5.49141 133.898 4.56329 135.63 4.86115L135.727 4.29133C135.746 4.19736 135.798 4.11489 135.873 4.06163C135.948 4.00836 136.04 3.98854 136.128 4.00642ZM134.819 9.65284L135.536 5.55185C134.162 5.3101 133.103 5.98352 132.917 7.08432C132.73 8.18511 133.083 8.82833 134.819 9.65284ZM135.281 10.6932L134.555 14.8374C135.97 15.0877 137.041 14.4057 137.244 13.2574C137.422 12.2214 137.041 11.4918 135.281 10.6932Z" fill="#DBDBDB"/>
<path d="M0 221.51C65.3432 221.189 138.646 221.189 203.99 221.51C138.646 221.826 65.3432 221.826 0 221.51Z" fill="#263238"/>
<path d="M114.269 124.067H154.448V115.191H114.269V124.067Z" fill="white"/>
<g opacity="0.1">
<path d="M152.79 123.255C152.436 120.901 152.436 118.508 152.79 116.154C153.148 118.508 153.148 120.901 152.79 123.255Z" fill="black"/>
<path d="M149.797 123.255C149.442 120.901 149.442 118.508 149.797 116.154C150.154 118.508 150.154 120.901 149.797 123.255Z" fill="black"/>
<path d="M148.336 123.255C147.982 120.901 147.982 118.508 148.336 116.154C148.694 118.508 148.694 120.901 148.336 123.255Z" fill="black"/>
<path d="M140.319 123.255C139.962 120.901 139.962 118.508 140.319 116.154C140.674 118.508 140.674 120.901 140.319 123.255Z" fill="black"/>
<path d="M138.144 123.255C137.787 120.901 137.787 118.508 138.144 116.154C138.501 118.508 138.501 120.901 138.144 123.255Z" fill="black"/>
<path d="M129.164 123.255C128.809 120.901 128.809 118.508 129.164 116.154C129.521 118.508 129.521 120.901 129.164 123.255Z" fill="black"/>
<path d="M127.092 123.255C126.735 120.901 126.735 118.508 127.092 116.154C127.447 118.508 127.447 120.901 127.092 123.255Z" fill="black"/>
<path d="M123.28 123.255C122.926 120.901 122.926 118.508 123.28 116.154C123.64 118.507 123.64 120.902 123.28 123.255Z" fill="black"/>
<path d="M130.899 123.255C130.544 120.901 130.544 118.508 130.899 116.154C131.256 118.508 131.256 120.901 130.899 123.255Z" fill="black"/>
<path d="M145.685 123.255C145.33 120.901 145.33 118.508 145.685 116.154C146.039 118.508 146.039 120.901 145.685 123.255Z" fill="black"/>
<path d="M135.285 123.255C134.931 120.901 134.931 118.508 135.285 116.154C135.643 118.508 135.643 120.901 135.285 123.255Z" fill="black"/>
<path d="M133.789 123.255C133.434 120.901 133.434 118.508 133.789 116.154C134.146 118.508 134.146 120.901 133.789 123.255Z" fill="black"/>
<path d="M118.319 123.255C117.962 120.901 117.962 118.508 118.319 116.154C118.674 118.508 118.674 120.901 118.319 123.255Z" fill="black"/>
<path d="M116.076 123.255C115.719 120.901 115.719 118.508 116.076 116.154C116.431 118.508 116.431 120.901 116.076 123.255Z" fill="black"/>
<path d="M121.514 123.255C121.16 120.901 121.16 118.508 121.514 116.154C121.872 118.508 121.872 120.901 121.514 123.255Z" fill="black"/>
<path d="M142.049 123.255C141.689 120.902 141.689 118.507 142.049 116.154C142.404 118.508 142.404 120.901 142.049 123.255Z" fill="black"/>
</g>
<path opacity="0.1" d="M114.269 124.068V122.182L154.447 120.914V124.068H114.269Z" fill="black"/>
<path d="M117.019 132.95H157.198V124.073H117.019V132.95Z" fill="white"/>
<g opacity="0.1">
<path d="M155.54 132.131C155.183 129.778 155.183 127.384 155.54 125.031C155.895 127.384 155.895 129.778 155.54 132.131Z" fill="black"/>
<path d="M152.547 132.131C152.189 129.778 152.189 127.384 152.547 125.031C152.902 127.384 152.902 129.778 152.547 132.131Z" fill="black"/>
<path d="M151.086 132.131C150.729 129.778 150.729 127.384 151.086 125.031C151.441 127.384 151.441 129.778 151.086 132.131Z" fill="black"/>
<path d="M143.059 132.131C142.704 129.778 142.704 127.384 143.059 125.031C143.416 127.384 143.416 129.778 143.059 132.131Z" fill="black"/>
<path d="M140.889 132.131C140.534 129.778 140.534 127.384 140.889 125.031C141.246 127.384 141.246 129.778 140.889 132.131Z" fill="black"/>
<path d="M131.914 132.131C131.556 129.778 131.556 127.384 131.914 125.031C132.268 127.384 132.268 129.778 131.914 132.131Z" fill="black"/>
<path d="M129.837 132.131C129.482 129.778 129.482 127.384 129.837 125.031C130.194 127.384 130.194 129.778 129.837 132.131Z" fill="black"/>
<path d="M126.03 132.131C125.676 129.778 125.676 127.384 126.03 125.031C126.388 127.384 126.388 129.778 126.03 132.131Z" fill="black"/>
<path d="M133.649 132.131C133.291 129.778 133.291 127.384 133.649 125.031C134.003 127.384 134.003 129.778 133.649 132.131Z" fill="black"/>
<path d="M148.435 132.131C148.077 129.778 148.077 127.384 148.435 125.031C148.789 127.384 148.789 129.778 148.435 132.131Z" fill="black"/>
<path d="M138.035 132.131C137.678 129.778 137.678 127.384 138.035 125.031C138.39 127.384 138.39 129.778 138.035 132.131Z" fill="black"/>
<path d="M136.539 132.131C136.181 129.778 136.181 127.384 136.539 125.031C136.893 127.384 136.893 129.778 136.539 132.131Z" fill="black"/>
<path d="M121.069 132.131C120.712 129.778 120.712 127.384 121.069 125.031C121.424 127.384 121.424 129.778 121.069 132.131Z" fill="black"/>
<path d="M118.821 132.131C118.467 129.778 118.467 127.384 118.821 125.031C119.179 127.384 119.179 129.778 118.821 132.131Z" fill="black"/>
<path d="M124.264 132.131C123.907 129.778 123.907 127.384 124.264 125.031C124.619 127.384 124.619 129.778 124.264 132.131Z" fill="black"/>
<path d="M144.794 132.131C144.439 129.778 144.439 127.384 144.794 125.031C145.151 127.384 145.151 129.778 144.794 132.131Z" fill="black"/>
</g>
<path opacity="0.1" d="M117.019 132.945V131.059L157.198 129.791V132.945H117.019Z" fill="black"/>
<path d="M116.309 177.266H156.488V168.389H116.309V177.266Z" fill="white"/>
<g opacity="0.1">
<path d="M154.82 176.453C154.466 174.097 154.466 171.702 154.82 169.347C155.178 171.702 155.178 174.098 154.82 176.453Z" fill="black"/>
<path d="M151.837 176.453C151.483 174.097 151.483 171.702 151.837 169.347C152.195 171.702 152.195 174.098 151.837 176.453Z" fill="black"/>
<path d="M150.377 176.453C150.022 174.097 150.022 171.702 150.377 169.347C150.734 171.702 150.734 174.098 150.377 176.453Z" fill="black"/>
<path d="M142.355 176.453C141.997 174.098 141.997 171.702 142.355 169.347C142.709 171.702 142.709 174.097 142.355 176.453Z" fill="black"/>
<path d="M140.185 176.453C139.827 174.098 139.827 171.702 140.185 169.347C140.542 171.702 140.542 174.098 140.185 176.453Z" fill="black"/>
<path d="M131.204 176.453C130.85 174.097 130.85 171.702 131.204 169.347C131.562 171.702 131.562 174.098 131.204 176.453Z" fill="black"/>
<path d="M129.133 176.453C128.775 174.098 128.775 171.702 129.133 169.347C129.487 171.702 129.487 174.097 129.133 176.453Z" fill="black"/>
<path d="M125.3 176.453C124.945 174.097 124.945 171.702 125.3 169.347C125.66 171.702 125.66 174.098 125.3 176.453Z" fill="black"/>
<path d="M132.939 176.453C132.585 174.097 132.585 171.702 132.939 169.347C133.297 171.702 133.297 174.098 132.939 176.453Z" fill="black"/>
<path d="M147.725 176.453C147.37 174.097 147.37 171.702 147.725 169.347C148.08 171.702 148.08 174.097 147.725 176.453Z" fill="black"/>
<path d="M137.326 176.453C136.971 174.097 136.971 171.702 137.326 169.347C137.683 171.702 137.683 174.098 137.326 176.453Z" fill="black"/>
<path d="M135.829 176.453C135.474 174.097 135.474 171.702 135.829 169.347C136.186 171.702 136.186 174.098 135.829 176.453Z" fill="black"/>
<path d="M120.359 176.453C120.002 174.098 120.002 171.702 120.359 169.347C120.714 171.702 120.714 174.097 120.359 176.453Z" fill="black"/>
<path d="M118.117 176.453C117.76 174.098 117.76 171.702 118.117 169.347C118.472 171.702 118.472 174.097 118.117 176.453Z" fill="black"/>
<path d="M123.555 176.453C123.2 174.097 123.2 171.702 123.555 169.347C123.912 171.702 123.912 174.098 123.555 176.453Z" fill="black"/>
<path d="M144.09 176.453C143.73 174.098 143.73 171.702 144.09 169.347C144.444 171.702 144.444 174.097 144.09 176.453Z" fill="black"/>
</g>
<path opacity="0.1" d="M116.309 177.266V175.376L156.488 174.107V177.266H116.309Z" fill="black"/>
<path d="M111.042 186.143H151.221V177.266H111.042V186.143Z" fill="white"/>
<g opacity="0.1">
<path d="M149.569 185.33C149.212 182.975 149.212 180.579 149.569 178.224C149.924 180.579 149.924 182.974 149.569 185.33Z" fill="black"/>
<path d="M146.576 185.33C146.221 182.974 146.221 180.579 146.576 178.224C146.933 180.579 146.933 182.975 146.576 185.33Z" fill="black"/>
<path d="M145.115 185.33C144.758 182.975 144.758 180.579 145.115 178.224C145.47 180.579 145.47 182.974 145.115 185.33Z" fill="black"/>
<path d="M137.088 185.33C136.733 182.974 136.733 180.579 137.088 178.224C137.445 180.579 137.445 182.975 137.088 185.33Z" fill="black"/>
<path d="M134.918 185.33C134.563 182.974 134.563 180.579 134.918 178.224C135.275 180.579 135.275 182.975 134.918 185.33Z" fill="black"/>
<path d="M125.942 185.33C125.588 182.974 125.588 180.579 125.942 178.224C126.3 180.579 126.3 182.975 125.942 185.33Z" fill="black"/>
<path d="M123.871 185.33C123.513 182.975 123.513 180.579 123.871 178.224C124.226 180.579 124.226 182.974 123.871 185.33Z" fill="black"/>
<path d="M120.059 185.33C119.704 182.974 119.704 180.579 120.059 178.224C120.416 180.579 120.416 182.975 120.059 185.33Z" fill="black"/>
<path d="M127.677 185.33C127.32 182.975 127.32 180.579 127.677 178.224C128.032 180.579 128.032 182.974 127.677 185.33Z" fill="black"/>
<path d="M142.463 185.33C142.106 182.975 142.106 180.579 142.463 178.224C142.818 180.579 142.818 182.974 142.463 185.33Z" fill="black"/>
<path d="M132.064 185.33C131.707 182.975 131.707 180.579 132.064 178.224C132.419 180.579 132.419 182.974 132.064 185.33Z" fill="black"/>
<path d="M130.567 185.33C130.21 182.975 130.21 180.579 130.567 178.224C130.922 180.579 130.922 182.974 130.567 185.33Z" fill="black"/>
<path d="M115.098 185.33C114.74 182.975 114.74 180.579 115.098 178.224C115.452 180.579 115.452 182.974 115.098 185.33Z" fill="black"/>
<path d="M112.871 185.33C112.516 182.974 112.516 180.579 112.871 178.224C113.228 180.579 113.228 182.975 112.871 185.33Z" fill="black"/>
<path d="M118.293 185.33C117.936 182.975 117.936 180.579 118.293 178.224C118.648 180.579 118.648 182.974 118.293 185.33Z" fill="black"/>
<path d="M138.823 185.33C138.468 182.974 138.468 180.579 138.823 178.224C139.18 180.579 139.18 182.975 138.823 185.33Z" fill="black"/>
</g>
<path opacity="0.1" d="M111.048 186.143V184.252L151.226 182.989V186.143H111.048Z" fill="black"/>
<path d="M112.539 195.02H152.718V186.143H112.539V195.02Z" fill="white"/>
<g opacity="0.1">
<path d="M151.066 194.207C150.708 191.852 150.708 189.456 151.066 187.101C151.42 189.456 151.42 191.851 151.066 194.207Z" fill="black"/>
<path d="M148.088 194.207C147.733 191.851 147.733 189.456 148.088 187.101C148.442 189.456 148.442 191.851 148.088 194.207Z" fill="black"/>
<path d="M146.612 194.207C146.254 191.852 146.254 189.456 146.612 187.101C146.966 189.456 146.966 191.851 146.612 194.207Z" fill="black"/>
<path d="M138.584 194.207C138.229 191.851 138.229 189.456 138.584 187.101C138.941 189.456 138.941 191.852 138.584 194.207Z" fill="black"/>
<path d="M136.414 194.207C136.06 191.851 136.06 189.456 136.414 187.101C136.772 189.456 136.772 191.852 136.414 194.207Z" fill="black"/>
<path d="M127.439 194.207C127.082 191.852 127.082 189.456 127.439 187.101C127.794 189.456 127.794 191.851 127.439 194.207Z" fill="black"/>
<path d="M125.362 194.207C125.008 191.851 125.008 189.456 125.362 187.101C125.72 189.456 125.72 191.852 125.362 194.207Z" fill="black"/>
<path d="M121.556 194.207C121.201 191.851 121.201 189.456 121.556 187.101C121.913 189.456 121.913 191.852 121.556 194.207Z" fill="black"/>
<path d="M129.174 194.207C128.817 191.852 128.817 189.456 129.174 187.101C129.529 189.456 129.529 191.851 129.174 194.207Z" fill="black"/>
<path d="M143.945 194.207C143.587 191.852 143.587 189.456 143.945 187.101C144.299 189.456 144.299 191.851 143.945 194.207Z" fill="black"/>
<path d="M133.586 194.207C133.229 191.852 133.229 189.456 133.586 187.101C133.941 189.456 133.941 191.851 133.586 194.207Z" fill="black"/>
<path d="M132.064 194.207C131.707 191.852 131.707 189.456 132.064 187.101C132.419 189.456 132.419 191.851 132.064 194.207Z" fill="black"/>
<path d="M116.594 194.207C116.237 191.852 116.237 189.456 116.594 187.101C116.949 189.456 116.949 191.851 116.594 194.207Z" fill="black"/>
<path d="M114.347 194.207C113.992 191.851 113.992 189.456 114.347 187.101C114.704 189.456 114.704 191.852 114.347 194.207Z" fill="black"/>
<path d="M119.79 194.207C119.432 191.852 119.432 189.456 119.79 187.101C120.144 189.456 120.144 191.851 119.79 194.207Z" fill="black"/>
<path d="M140.319 194.207C139.964 191.851 139.964 189.456 140.319 187.101C140.676 189.456 140.676 191.852 140.319 194.207Z" fill="black"/>
</g>
<path opacity="0.1" d="M112.544 195.02V193.135L152.723 191.866V195.02H112.544Z" fill="black"/>
<path d="M111.042 203.896H151.221V195.02H111.042V203.896Z" fill="white"/>
<g opacity="0.1">
<path d="M149.569 203.083C149.212 200.73 149.212 198.336 149.569 195.983C149.924 198.336 149.924 200.73 149.569 203.083Z" fill="black"/>
<path d="M146.575 203.083C146.221 200.73 146.221 198.336 146.575 195.983C146.933 198.336 146.933 200.73 146.575 203.083Z" fill="black"/>
<path d="M145.115 203.083C144.758 200.73 144.758 198.336 145.115 195.983C145.47 198.336 145.47 200.73 145.115 203.083Z" fill="black"/>
<path d="M137.088 203.083C136.733 200.73 136.733 198.336 137.088 195.983C137.445 198.336 137.445 200.73 137.088 203.083Z" fill="black"/>
<path d="M134.918 203.083C134.563 200.73 134.563 198.336 134.918 195.983C135.275 198.336 135.275 200.73 134.918 203.083Z" fill="black"/>
<path d="M125.942 203.083C125.588 200.73 125.588 198.336 125.942 195.983C126.3 198.336 126.3 200.73 125.942 203.083Z" fill="black"/>
<path d="M123.871 203.083C123.513 200.73 123.513 198.336 123.871 195.983C124.225 198.336 124.225 200.73 123.871 203.083Z" fill="black"/>
<path d="M120.059 203.083C119.704 200.73 119.704 198.336 120.059 195.983C120.416 198.336 120.416 200.73 120.059 203.083Z" fill="black"/>
<path d="M127.677 203.083C127.32 200.73 127.32 198.336 127.677 195.983C128.032 198.336 128.032 200.73 127.677 203.083Z" fill="black"/>
<path d="M142.463 203.083C142.106 200.73 142.106 198.336 142.463 195.983C142.818 198.336 142.818 200.73 142.463 203.083Z" fill="black"/>
<path d="M132.064 203.083C131.707 200.73 131.707 198.336 132.064 195.983C132.419 198.336 132.419 200.73 132.064 203.083Z" fill="black"/>
<path d="M130.567 203.083C130.21 200.73 130.21 198.336 130.567 195.983C130.922 198.336 130.922 200.73 130.567 203.083Z" fill="black"/>
<path d="M115.098 203.083C114.74 200.73 114.74 198.336 115.098 195.983C115.452 198.336 115.452 200.73 115.098 203.083Z" fill="black"/>
<path d="M112.871 203.083C112.516 200.73 112.516 198.336 112.871 195.983C113.228 198.336 113.228 200.73 112.871 203.083Z" fill="black"/>
<path d="M118.293 203.083C117.936 200.73 117.936 198.336 118.293 195.983C118.648 198.336 118.648 200.73 118.293 203.083Z" fill="black"/>
<path d="M138.823 203.083C138.468 200.73 138.468 198.336 138.823 195.983C139.18 198.336 139.18 200.73 138.823 203.083Z" fill="black"/>
</g>
<path opacity="0.1" d="M111.048 203.896V202.011L151.226 200.742V203.896H111.048Z" fill="black"/>
<path d="M108.199 212.778H148.378V203.902H108.199V212.778Z" fill="white"/>
<g opacity="0.1">
<path d="M146.726 211.96C146.368 209.606 146.368 207.213 146.726 204.859C147.08 207.213 147.08 209.606 146.726 211.96Z" fill="black"/>
<path d="M143.732 211.96C143.377 209.606 143.377 207.213 143.732 204.859C144.089 207.213 144.089 209.606 143.732 211.96Z" fill="black"/>
<path d="M142.272 211.96C141.914 209.606 141.914 207.213 142.272 204.859C142.626 207.213 142.626 209.606 142.272 211.96Z" fill="black"/>
<path d="M134.244 211.96C133.889 209.606 133.889 207.213 134.244 204.859C134.604 207.212 134.604 209.607 134.244 211.96Z" fill="black"/>
<path d="M132.074 211.96C131.72 209.606 131.72 207.213 132.074 204.859C132.432 207.213 132.432 209.606 132.074 211.96Z" fill="black"/>
<path d="M123.099 211.96C122.744 209.606 122.744 207.213 123.099 204.859C123.456 207.213 123.456 209.606 123.099 211.96Z" fill="black"/>
<path d="M121.027 211.96C120.67 209.606 120.67 207.213 121.027 204.859C121.382 207.213 121.382 209.606 121.027 211.96Z" fill="black"/>
<path d="M117.216 211.96C116.861 209.606 116.861 207.213 117.216 204.859C117.573 207.213 117.573 209.606 117.216 211.96Z" fill="black"/>
<path d="M124.834 211.96C124.477 209.606 124.477 207.213 124.834 204.859C125.189 207.213 125.189 209.606 124.834 211.96Z" fill="black"/>
<path d="M139.62 211.96C139.263 209.606 139.263 207.213 139.62 204.859C139.975 207.213 139.975 209.606 139.62 211.96Z" fill="black"/>
<path d="M129.221 211.96C128.863 209.606 128.863 207.213 129.221 204.859C129.575 207.213 129.575 209.606 129.221 211.96Z" fill="black"/>
<path d="M127.724 211.96C127.366 209.606 127.366 207.213 127.724 204.859C128.079 207.213 128.079 209.606 127.724 211.96Z" fill="black"/>
<path d="M112.254 211.96C111.897 209.606 111.897 207.213 112.254 204.859C112.609 207.213 112.609 209.606 112.254 211.96Z" fill="black"/>
<path d="M110.007 211.96C109.652 209.606 109.652 207.213 110.007 204.859C110.364 207.213 110.364 209.606 110.007 211.96Z" fill="black"/>
<path d="M115.46 211.96C115.103 209.606 115.103 207.213 115.46 204.859C115.815 207.213 115.815 209.606 115.46 211.96Z" fill="black"/>
<path d="M135.979 211.96C135.624 209.606 135.624 207.213 135.979 204.859C136.337 207.213 136.337 209.606 135.979 211.96Z" fill="black"/>
</g>
<path opacity="0.1" d="M108.204 212.773V210.888L148.383 209.619V212.773H108.204Z" fill="black"/>
<path d="M111.042 221.655H151.221V212.778H111.042V221.655Z" fill="white"/>
<g opacity="0.1">
<path d="M149.569 220.842C149.212 218.487 149.212 216.091 149.569 213.736C149.924 216.092 149.924 218.487 149.569 220.842Z" fill="black"/>
<path d="M146.576 220.842C146.221 218.487 146.221 216.092 146.576 213.736C146.933 216.091 146.933 218.487 146.576 220.842Z" fill="black"/>
<path d="M145.115 220.842C144.758 218.487 144.758 216.091 145.115 213.736C145.47 216.092 145.47 218.487 145.115 220.842Z" fill="black"/>
<path d="M137.088 220.842C136.733 218.487 136.733 216.092 137.088 213.736C137.445 216.091 137.445 218.487 137.088 220.842Z" fill="black"/>
<path d="M134.918 220.842C134.563 218.487 134.563 216.092 134.918 213.736C135.275 216.091 135.275 218.487 134.918 220.842Z" fill="black"/>
<path d="M125.942 220.842C125.588 218.487 125.588 216.092 125.942 213.736C126.3 216.091 126.3 218.487 125.942 220.842Z" fill="black"/>
<path d="M123.871 220.842C123.513 218.487 123.513 216.091 123.871 213.736C124.226 216.092 124.226 218.487 123.871 220.842Z" fill="black"/>
<path d="M120.059 220.842C119.704 218.487 119.704 216.092 120.059 213.736C120.416 216.091 120.416 218.487 120.059 220.842Z" fill="black"/>
<path d="M127.677 220.842C127.32 218.487 127.32 216.091 127.677 213.736C128.032 216.092 128.032 218.487 127.677 220.842Z" fill="black"/>
<path d="M142.463 220.842C142.106 218.487 142.106 216.091 142.463 213.736C142.818 216.092 142.818 218.487 142.463 220.842Z" fill="black"/>
<path d="M132.064 220.842C131.707 218.487 131.707 216.091 132.064 213.736C132.419 216.092 132.419 218.487 132.064 220.842Z" fill="black"/>
<path d="M130.567 220.842C130.21 218.487 130.21 216.091 130.567 213.736C130.922 216.092 130.922 218.487 130.567 220.842Z" fill="black"/>
<path d="M115.098 220.842C114.74 218.487 114.74 216.091 115.098 213.736C115.452 216.092 115.452 218.487 115.098 220.842Z" fill="black"/>
<path d="M112.871 220.842C112.516 218.487 112.516 216.092 112.871 213.736C113.228 216.091 113.228 218.487 112.871 220.842Z" fill="black"/>
<path d="M118.293 220.842C117.936 218.487 117.936 216.091 118.293 213.736C118.648 216.092 118.648 218.487 118.293 220.842Z" fill="black"/>
<path d="M138.823 220.842C138.468 218.487 138.468 216.092 138.823 213.736C139.18 216.091 139.18 218.487 138.823 220.842Z" fill="black"/>
</g>
<path opacity="0.1" d="M111.048 221.655V219.765L151.226 218.501V221.655H111.048Z" fill="black"/>
<path d="M110.809 150.63H150.988V141.754H110.809V150.63Z" fill="white"/>
<g opacity="0.1">
<path d="M149.331 149.817C148.976 147.462 148.976 145.067 149.331 142.712C149.688 145.067 149.688 147.462 149.331 149.817Z" fill="black"/>
<path d="M146.337 149.817C145.982 147.462 145.982 145.067 146.337 142.712C146.695 145.067 146.695 147.462 146.337 149.817Z" fill="black"/>
<path d="M144.877 149.817C144.522 147.462 144.522 145.067 144.877 142.712C145.234 145.067 145.234 147.462 144.877 149.817Z" fill="black"/>
<path d="M136.855 149.817C136.497 147.462 136.497 145.067 136.855 142.712C137.209 145.067 137.209 147.462 136.855 149.817Z" fill="black"/>
<path d="M134.684 149.817C134.327 147.462 134.327 145.067 134.684 142.712C135.039 145.067 135.039 147.462 134.684 149.817Z" fill="black"/>
<path d="M125.704 149.817C125.349 147.462 125.349 145.067 125.704 142.712C126.061 145.067 126.061 147.462 125.704 149.817Z" fill="black"/>
<path d="M123.633 149.817C123.275 147.462 123.275 145.067 123.633 142.712C123.987 145.067 123.987 147.462 123.633 149.817Z" fill="black"/>
<path d="M119.826 149.817C119.469 147.462 119.469 145.067 119.826 142.712C120.181 145.067 120.181 147.462 119.826 149.817Z" fill="black"/>
<path d="M127.439 149.817C127.084 147.462 127.084 145.067 127.439 142.712C127.796 145.067 127.796 147.462 127.439 149.817Z" fill="black"/>
<path d="M142.225 149.817C141.87 147.462 141.87 145.067 142.225 142.712C142.582 145.067 142.582 147.462 142.225 149.817Z" fill="black"/>
<path d="M131.826 149.817C131.471 147.462 131.471 145.067 131.826 142.712C132.183 145.067 132.183 147.462 131.826 149.817Z" fill="black"/>
<path d="M130.329 149.817C129.974 147.462 129.974 145.067 130.329 142.712C130.686 145.067 130.686 147.462 130.329 149.817Z" fill="black"/>
<path d="M114.859 149.817C114.505 147.462 114.505 145.067 114.859 142.712C115.217 145.067 115.217 147.462 114.859 149.817Z" fill="black"/>
<path d="M112.617 149.817C112.26 147.462 112.26 145.067 112.617 142.712C112.972 145.067 112.972 147.462 112.617 149.817Z" fill="black"/>
<path d="M118.05 149.817C117.695 147.462 117.695 145.067 118.05 142.712C118.407 145.067 118.407 147.462 118.05 149.817Z" fill="black"/>
<path d="M138.589 149.817C138.232 147.462 138.232 145.067 138.589 142.712C138.944 145.067 138.944 147.462 138.589 149.817Z" fill="black"/>
</g>
<path opacity="0.1" d="M110.809 150.631V148.745L150.988 147.477V150.631H110.809Z" fill="black"/>
<path d="M111.824 159.507H152.003V150.631H111.824V159.507Z" fill="white"/>
<g opacity="0.1">
<path d="M113.632 151.594C113.987 153.947 113.987 156.341 113.632 158.694C113.275 156.341 113.275 153.947 113.632 151.594Z" fill="black"/>
<path d="M116.62 151.594C116.977 153.947 116.977 156.341 116.62 158.694C116.265 156.341 116.265 153.947 116.62 151.594Z" fill="black"/>
<path d="M118.086 151.594C118.441 153.947 118.441 156.341 118.086 158.694C117.729 156.341 117.729 153.947 118.086 151.594Z" fill="black"/>
<path d="M126.108 151.594C126.463 153.947 126.463 156.341 126.108 158.694C125.753 156.341 125.753 153.947 126.108 151.594Z" fill="black"/>
<path d="M128.278 151.594C128.635 153.947 128.635 156.341 128.278 158.694C127.923 156.341 127.923 153.947 128.278 151.594Z" fill="black"/>
<path d="M137.253 151.594C137.611 153.947 137.611 156.341 137.253 158.694C136.899 156.341 136.899 153.947 137.253 151.594Z" fill="black"/>
<path d="M139.33 151.594C139.685 153.947 139.685 156.341 139.33 158.694C138.973 156.341 138.973 153.947 139.33 151.594Z" fill="black"/>
<path d="M143.136 151.594C143.494 153.947 143.494 156.341 143.136 158.694C142.782 156.341 142.782 153.947 143.136 151.594Z" fill="black"/>
<path d="M135.523 151.594C135.878 153.947 135.878 156.341 135.523 158.694C135.166 156.341 135.166 153.947 135.523 151.594Z" fill="black"/>
<path d="M120.737 151.594C121.092 153.947 121.092 156.341 120.737 158.694C120.38 156.341 120.38 153.947 120.737 151.594Z" fill="black"/>
<path d="M131.137 151.594C131.491 153.947 131.491 156.341 131.137 158.694C130.779 156.341 130.779 153.947 131.137 151.594Z" fill="black"/>
<path d="M132.634 151.594C132.988 153.947 132.988 156.341 132.634 158.694C132.276 156.341 132.276 153.947 132.634 151.594Z" fill="black"/>
<path d="M148.088 151.594C148.442 153.947 148.442 156.341 148.088 158.694C147.73 156.341 147.73 153.947 148.088 151.594Z" fill="black"/>
<path d="M150.346 151.594C150.703 153.947 150.703 156.341 150.346 158.694C149.991 156.341 149.991 153.947 150.346 151.594Z" fill="black"/>
<path d="M144.908 151.594C145.262 153.947 145.262 156.341 144.908 158.694C144.55 156.341 144.55 153.947 144.908 151.594Z" fill="black"/>
<path d="M124.373 151.594C124.73 153.947 124.73 156.341 124.373 158.694C124.018 156.341 124.018 153.947 124.373 151.594Z" fill="black"/>
</g>
<path opacity="0.1" d="M111.824 159.508V157.622L152.003 156.354V159.508H111.824Z" fill="black"/>
<path d="M114.264 168.389H154.442V159.512H114.264V168.389Z" fill="white"/>
<g opacity="0.1">
<path d="M152.79 167.571C152.433 165.218 152.433 162.824 152.79 160.471C153.145 162.824 153.145 165.218 152.79 167.571Z" fill="black"/>
<path d="M149.797 167.571C149.442 165.218 149.442 162.824 149.797 160.471C150.154 162.824 150.154 165.218 149.797 167.571Z" fill="black"/>
<path d="M148.336 167.571C147.979 165.218 147.979 162.824 148.336 160.471C148.691 162.824 148.691 165.218 148.336 167.571Z" fill="black"/>
<path d="M140.319 167.571C139.962 165.218 139.962 162.824 140.319 160.471C140.674 162.824 140.674 165.218 140.319 167.571Z" fill="black"/>
<path d="M138.139 167.571C137.784 165.218 137.784 162.824 138.139 160.471C138.496 162.824 138.496 165.218 138.139 167.571Z" fill="black"/>
<path d="M129.164 167.571C128.809 165.218 128.809 162.824 129.164 160.471C129.521 162.824 129.521 165.218 129.164 167.571Z" fill="black"/>
<path d="M127.092 167.571C126.735 165.218 126.735 162.824 127.092 160.471C127.447 162.824 127.447 165.218 127.092 167.571Z" fill="black"/>
<path d="M123.28 167.571C122.926 165.218 122.926 162.824 123.28 160.471C123.638 162.824 123.638 165.218 123.28 167.571Z" fill="black"/>
<path d="M130.899 167.571C130.541 165.218 130.541 162.824 130.899 160.471C131.253 162.824 131.253 165.218 130.899 167.571Z" fill="black"/>
<path d="M145.685 167.571C145.327 165.218 145.327 162.824 145.685 160.471C146.039 162.824 146.039 165.218 145.685 167.571Z" fill="black"/>
<path d="M135.285 167.571C134.928 165.218 134.928 162.824 135.285 160.471C135.64 162.824 135.64 165.218 135.285 167.571Z" fill="black"/>
<path d="M133.789 167.571C133.431 165.218 133.431 162.824 133.789 160.471C134.143 162.824 134.143 165.218 133.789 167.571Z" fill="black"/>
<path d="M118.319 167.571C117.962 165.218 117.962 162.824 118.319 160.471C118.674 162.824 118.674 165.218 118.319 167.571Z" fill="black"/>
<path d="M116.076 167.571C115.717 165.218 115.717 162.824 116.076 160.471C116.431 162.824 116.431 165.218 116.076 167.571Z" fill="black"/>
<path d="M121.514 167.571C121.157 165.218 121.157 162.824 121.514 160.471C121.869 162.824 121.869 165.218 121.514 167.571Z" fill="black"/>
<path d="M142.044 167.571C141.689 165.218 141.689 162.824 142.044 160.471C142.401 162.824 142.401 165.218 142.044 167.571Z" fill="black"/>
</g>
<path opacity="0.1" d="M114.269 168.384V166.499L154.447 165.23V168.384H114.269Z" fill="black"/>
<path d="M114.269 141.754H154.448V132.877H114.269V141.754Z" fill="white"/>
<g opacity="0.1">
<path d="M116.076 133.835C116.431 136.19 116.431 138.585 116.076 140.941C115.719 138.585 115.719 136.19 116.076 133.835Z" fill="black"/>
<path d="M119.085 133.835C119.443 136.19 119.443 138.585 119.085 140.941C118.731 138.585 118.731 136.19 119.085 133.835Z" fill="black"/>
<path d="M120.53 133.835C120.885 136.19 120.885 138.585 120.53 140.941C120.173 138.585 120.173 136.19 120.53 133.835Z" fill="black"/>
<path d="M128.553 133.835C128.91 136.19 128.91 138.585 128.553 140.941C128.198 138.585 128.198 136.19 128.553 133.835Z" fill="black"/>
<path d="M130.723 133.835C131.08 136.19 131.08 138.585 130.723 140.941C130.368 138.585 130.368 136.19 130.723 133.835Z" fill="black"/>
<path d="M139.698 133.835C140.055 136.19 140.055 138.585 139.698 140.941C139.343 138.585 139.343 136.19 139.698 133.835Z" fill="black"/>
<path d="M141.775 133.835C142.129 136.19 142.129 138.585 141.775 140.941C141.417 138.585 141.417 136.19 141.775 133.835Z" fill="black"/>
<path d="M145.581 133.835C145.938 136.19 145.938 138.585 145.581 140.941C145.226 138.585 145.226 136.19 145.581 133.835Z" fill="black"/>
<path d="M137.968 133.835C138.323 136.19 138.323 138.585 137.968 140.941C137.611 138.585 137.611 136.19 137.968 133.835Z" fill="black"/>
<path d="M123.182 133.835C123.537 136.19 123.537 138.585 123.182 140.941C122.825 138.585 122.825 136.19 123.182 133.835Z" fill="black"/>
<path d="M133.587 133.835C133.941 136.19 133.941 138.585 133.587 140.941C133.229 138.585 133.229 136.19 133.587 133.835Z" fill="black"/>
<path d="M135.078 133.835C135.433 136.19 135.433 138.585 135.078 140.941C134.721 138.585 134.721 136.19 135.078 133.835Z" fill="black"/>
<path d="M150.548 133.835C150.902 136.19 150.902 138.585 150.548 140.941C150.19 138.585 150.19 136.19 150.548 133.835Z" fill="black"/>
<path d="M152.79 133.835C153.148 136.19 153.148 138.585 152.79 140.941C152.435 138.585 152.435 136.19 152.79 133.835Z" fill="black"/>
<path d="M147.352 133.835C147.707 136.19 147.707 138.585 147.352 140.941C146.995 138.585 146.995 136.19 147.352 133.835Z" fill="black"/>
<path d="M126.818 133.835C127.175 136.19 127.175 138.585 126.818 140.941C126.463 138.585 126.463 136.19 126.818 133.835Z" fill="black"/>
</g>
<path opacity="0.1" d="M114.269 141.754V139.863L154.447 138.6V141.754H114.269Z" fill="black"/>
<path d="M103.165 181.927C129.614 186.671 122.628 225.855 96.1374 221.101C69.6469 216.347 76.6748 177.173 103.165 181.927Z" fill="white"/>
<path opacity="0.1" d="M103.165 181.927C129.614 186.671 122.628 225.855 96.1374 221.101C69.6469 216.347 76.6748 177.173 103.165 181.927Z" fill="black"/>
<path d="M100.685 181.482C125.891 186.003 118.899 225.182 93.6515 220.656C68.4039 216.129 75.437 176.95 100.685 181.482Z" fill="white"/>
<path opacity="0.1" d="M81.1805 201.99C81.3204 208.972 85.3807 215.735 94.2523 217.325C115.206 221.085 121.007 188.566 100.089 184.812C99.9492 184.786 99.8145 184.765 99.6747 184.75C119.293 188.675 113.658 219.449 93.693 215.86C85.5464 214.399 81.6156 208.376 81.1805 201.99Z" fill="black"/>
<g opacity="0.1">
<path d="M99.3484 188.877C99.5178 188.921 99.6632 189.03 99.7533 189.18C99.8434 189.33 99.8709 189.51 99.83 189.68L99.5659 190.757C101.279 191.329 102.782 192.4 103.88 193.834C103.974 193.924 104.043 194.036 104.082 194.16C104.121 194.284 104.128 194.416 104.103 194.543C104.08 194.634 104.039 194.72 103.983 194.796C103.927 194.871 103.856 194.935 103.775 194.983C103.694 195.031 103.605 195.063 103.512 195.076C103.419 195.089 103.324 195.084 103.233 195.061C103.143 195.042 103.058 195.006 102.984 194.953C102.909 194.9 102.846 194.833 102.798 194.755C101.893 193.507 100.644 192.549 99.2033 192L97.3337 199.505C101.202 201.385 102.544 203.347 101.886 205.983C101.177 208.832 98.2608 210.251 94.8944 209.521L94.3765 211.618C94.3551 211.703 94.3172 211.783 94.265 211.853C94.2128 211.923 94.1473 211.982 94.0723 212.026C93.9973 212.071 93.9142 212.101 93.8278 212.113C93.7414 212.126 93.6533 212.121 93.5686 212.1C93.4839 212.078 93.4043 212.041 93.3343 211.988C93.2643 211.936 93.2052 211.871 93.1605 211.796C93.1157 211.721 93.0862 211.638 93.0736 211.551C93.061 211.465 93.0655 211.377 93.087 211.292L93.6049 209.169C91.3969 208.44 89.4969 206.992 88.2084 205.056C88.1098 204.945 88.0491 204.806 88.0352 204.658C88.0213 204.51 88.0548 204.361 88.131 204.234C88.2072 204.106 88.322 204.006 88.4589 203.948C88.5957 203.891 88.7474 203.878 88.892 203.912C88.9815 203.932 89.066 203.97 89.1406 204.024C89.2153 204.077 89.2787 204.145 89.327 204.223C90.3984 205.965 92.0342 207.288 93.9622 207.972L95.8733 200.313C92.0615 198.422 90.7616 196.527 91.4349 193.839C92.1081 191.151 94.9928 189.644 98.2918 190.379L98.5456 189.343C98.594 189.178 98.7044 189.037 98.8538 188.95C99.0032 188.863 99.1803 188.837 99.3484 188.877ZM96.2099 198.945L98.0381 191.607C95.4175 191.006 93.3097 192.125 92.828 194.072C92.3671 195.9 92.9471 197.247 96.2099 198.945ZM96.9816 200.877L95.1327 208.298C97.8309 208.915 99.9698 207.781 100.477 205.745C100.959 203.891 100.281 202.529 96.9816 200.877Z" fill="black"/>
</g>
<path d="M159.481 163.288L142.199 177.271C138.88 179.922 136.021 182.305 134.653 183.677C134.136 184.195 133.84 184.563 133.825 184.744C133.825 184.744 133.825 184.744 133.825 184.78C133.944 186.303 154.365 213.425 155.395 214.13C156.426 214.834 158.503 211.954 158.565 210.271C158.627 208.588 155.457 194.698 155.457 194.698L172.589 180.585L159.481 163.288Z" fill="#FBD3C6"/>
<path d="M145.747 174.386L142.204 177.255C138.885 179.907 136.026 182.289 134.659 183.662C134.341 183.983 134.063 184.341 133.83 184.729C133.83 184.729 133.83 184.729 133.83 184.765C133.949 186.288 154.37 213.41 155.4 214.114C156.431 214.819 158.508 211.939 158.57 210.256C158.632 208.573 155.463 194.683 155.463 194.683L159.088 191.824L145.747 174.386Z" fill="#EBEBEB"/>
<path d="M155.375 214.14C154.339 213.431 133.923 186.308 133.804 184.781C133.747 184.206 137.528 181 142.204 177.256L142.349 177.142L155.722 194.491L155.416 194.709C155.416 194.709 158.591 208.583 158.523 210.277C158.456 211.97 156.405 214.85 155.375 214.14Z" fill="#34260E"/>
<path opacity="0.3" d="M155.375 214.14C154.339 213.431 133.923 186.308 133.804 184.781C133.747 184.206 137.528 181 142.204 177.256L142.349 177.142L155.722 194.491L155.416 194.709C155.416 194.709 158.591 208.583 158.523 210.277C158.456 211.97 156.405 214.85 155.375 214.14Z" fill="black"/>
<path d="M156.193 213.037C152.863 208.376 138.999 189.913 135.353 185.588C135.322 185.552 135.296 185.588 135.322 185.588C138.522 190.275 152.542 208.63 156.12 213.094C156.198 213.192 156.265 213.135 156.193 213.037Z" fill="#263238"/>
<path d="M156.472 196.216C155.437 194.144 153.52 192.171 151.2 191.762C151.112 191.762 151.091 191.876 151.154 191.922C153.003 193.223 154.708 194.718 156.239 196.381C156.264 196.406 156.296 196.42 156.33 196.423C156.364 196.426 156.398 196.417 156.426 196.397C156.454 196.377 156.474 196.348 156.482 196.315C156.491 196.282 156.487 196.246 156.472 196.216Z" fill="#263238"/>
<path d="M156.664 198.085C155.628 196.014 153.712 194.04 151.397 193.631C151.309 193.631 151.288 193.74 151.35 193.787C153.2 195.087 154.904 196.584 156.431 198.251C156.455 198.275 156.487 198.29 156.521 198.293C156.556 198.296 156.59 198.286 156.618 198.267C156.646 198.247 156.666 198.218 156.674 198.184C156.683 198.151 156.679 198.116 156.664 198.085Z" fill="#263238"/>
<path d="M156.861 199.991C155.825 197.919 153.909 195.946 151.594 195.537C151.501 195.537 151.48 195.651 151.542 195.698C153.392 196.998 155.097 198.492 156.628 200.157C156.652 200.181 156.684 200.196 156.718 200.199C156.752 200.202 156.786 200.192 156.814 200.172C156.842 200.153 156.862 200.123 156.871 200.09C156.879 200.057 156.876 200.022 156.861 199.991Z" fill="#263238"/>
<path d="M168.804 146.653C167.581 152.697 142.51 176.81 142.51 176.81L159.989 197.008C159.989 197.008 195.584 161.475 193.73 148.124C192.109 136.507 174.723 89.8086 174.723 89.8086H154.686C154.686 89.8086 170.031 140.713 168.804 146.653Z" fill="#37474F"/>
<path d="M161.998 192.187C159.678 189.297 160.383 190.115 158.031 187.23C156.876 185.827 149.294 176.624 147.989 175.5C147.963 175.5 147.917 175.5 147.932 175.552C148.808 177.033 156.55 186.101 157.726 187.463C160.134 190.281 159.476 189.447 161.916 192.238C161.924 192.243 161.934 192.245 161.944 192.245C161.954 192.244 161.963 192.241 161.972 192.236C161.98 192.231 161.987 192.224 161.992 192.215C161.996 192.206 161.999 192.196 161.998 192.187Z" fill="#263238"/>
<path d="M171.315 143.706C171.031 142.199 170.704 140.697 170.383 139.195C169.731 136.129 169.04 133.07 168.312 130.018C166.872 123.951 165.31 117.933 163.625 111.964C161.91 105.961 160.103 99.9693 158.026 94.086C157.767 93.3558 157.508 92.6307 157.234 91.9056C157.234 91.8539 157.13 91.8746 157.146 91.9315C158.948 97.8304 160.807 103.709 162.501 109.638C164.194 115.568 165.743 121.483 167.209 127.444C167.944 130.437 168.633 133.446 169.28 136.455C169.625 137.933 169.948 139.412 170.249 140.894C170.638 142.397 170.919 143.927 171.088 145.472C171.144 146.942 170.732 148.393 169.912 149.615C169.156 150.848 168.27 152.003 167.416 153.163C165.701 155.488 149.377 173.682 148.849 174.174C148.813 174.215 148.849 174.272 148.916 174.236C151.107 172.268 164.971 157.275 166.717 154.955C167.587 153.805 168.438 152.641 169.27 151.464C170.101 150.396 170.773 149.214 171.264 147.953C171.65 146.565 171.667 145.102 171.315 143.706Z" fill="#263238"/>
<path d="M162.672 188.188C162.672 188.188 167.006 209.272 167.001 209.288C167.063 213.534 167.188 217.258 167.431 219.174C167.429 219.185 167.429 219.195 167.431 219.205C167.442 219.661 167.555 220.109 167.763 220.516C167.763 220.516 167.763 220.516 167.789 220.542C169.063 221.381 203.006 221.909 204.202 221.526C205.398 221.142 204.404 217.724 203.099 216.652C201.794 215.58 188.888 209.567 188.888 209.567L184.341 188.494L162.672 188.188Z" fill="#FBD3C6"/>
<path d="M204.207 221.525C203.021 221.903 169.068 221.38 167.794 220.541C167.794 220.541 167.794 220.541 167.768 220.515C167.557 220.11 167.443 219.662 167.436 219.205C167.434 219.195 167.434 219.184 167.436 219.174C167.193 217.258 167.069 213.534 167.007 209.293L166.256 205.621H188.049L188.898 209.562C188.898 209.562 201.799 215.58 203.114 216.652C204.43 217.724 205.403 221.152 204.207 221.525Z" fill="#EBEBEB"/>
<path d="M204.207 221.525C203.016 221.909 169.073 221.38 167.794 220.541C167.302 220.231 167.089 215.28 167.007 209.288V209.101L188.908 209.194V209.567C188.908 209.567 201.814 215.58 203.125 216.657C204.435 217.734 205.398 221.153 204.207 221.525Z" fill="#34260E"/>
<path opacity="0.3" d="M204.207 221.525C203.016 221.909 169.073 221.38 167.794 220.541C167.302 220.231 167.089 215.28 167.007 209.288V209.101L188.908 209.194V209.567C188.908 209.567 201.814 215.58 203.125 216.657C204.435 217.734 205.398 221.153 204.207 221.525Z" fill="black"/>
<path d="M203.845 220.205C198.122 219.977 175.034 219.588 169.363 219.801C169.316 219.801 169.316 219.832 169.363 219.837C175.029 220.184 198.122 220.386 203.85 220.298C203.964 220.298 203.964 220.21 203.845 220.205Z" fill="#263238"/>
<path d="M190.731 209.66C188.489 209.21 185.728 209.51 183.999 211.089C183.931 211.146 183.999 211.245 184.092 211.224C186.254 210.56 188.482 210.131 190.737 209.945C190.77 209.938 190.799 209.92 190.82 209.893C190.841 209.867 190.852 209.834 190.852 209.8C190.851 209.767 190.839 209.734 190.817 209.709C190.795 209.683 190.765 209.666 190.731 209.66Z" fill="#263238"/>
<path d="M192.342 210.665C190.1 210.214 187.339 210.515 185.609 212.094C185.542 212.151 185.609 212.25 185.703 212.229C187.866 211.567 190.093 211.139 192.347 210.95C192.38 210.943 192.41 210.925 192.431 210.898C192.452 210.872 192.463 210.839 192.463 210.805C192.462 210.772 192.45 210.739 192.428 210.713C192.406 210.688 192.375 210.671 192.342 210.665Z" fill="#263238"/>
<path d="M193.953 211.67C191.71 211.219 188.95 211.52 187.22 213.099C187.153 213.156 187.22 213.255 187.313 213.234C189.476 212.572 191.704 212.144 193.958 211.955C193.991 211.948 194.021 211.93 194.042 211.903C194.063 211.877 194.074 211.844 194.073 211.81C194.073 211.776 194.06 211.744 194.038 211.718C194.016 211.693 193.986 211.676 193.953 211.67Z" fill="#263238"/>
<path d="M172.812 89.7878C172.029 93.0838 171.453 96.4256 171.088 99.7936C170.668 103.994 170.145 107.707 169.586 108.168C169.026 108.629 165.784 110.726 164.712 111.379C164.712 111.379 174.599 141.339 177.142 151.324C180.84 165.826 189.696 209.246 189.696 209.246H166.105C166.105 209.246 158.933 167.892 155.794 154.111C153.106 142.292 142.805 106.837 142.805 106.837C141.716 104.102 141.227 101.165 141.371 98.2244C141.515 95.284 142.288 92.4087 143.639 89.793C143.639 89.793 172.812 89.7671 172.812 89.7878Z" fill="#37474F"/>
<path d="M188.851 204.652C185.143 204.652 186.205 204.585 182.497 204.606C180.684 204.606 168.757 204.699 167.069 205.004C167.032 205.004 167.032 205.077 167.069 205.082C168.767 205.336 180.689 205.046 182.502 205.004C186.21 204.911 185.143 204.896 188.851 204.761C188.919 204.756 188.919 204.652 188.851 204.652Z" fill="#263238"/>
<path d="M171.258 106.987C168.966 108.246 166.787 109.704 164.748 111.343C164.736 111.356 164.728 111.373 164.727 111.392C164.725 111.41 164.73 111.429 164.74 111.444C164.75 111.46 164.765 111.471 164.782 111.477C164.8 111.483 164.819 111.483 164.836 111.477C167.043 110.094 169.301 108.748 171.429 107.246C171.461 107.222 171.483 107.187 171.49 107.148C171.497 107.109 171.488 107.069 171.466 107.036C171.445 107.002 171.411 106.979 171.372 106.97C171.333 106.961 171.293 106.967 171.258 106.987Z" fill="#263238"/>
<path d="M169.456 90.6838C169.456 90.6061 169.29 90.6061 169.306 90.6838C169.715 93.3216 169.992 95.9783 170.135 98.6438C170.212 99.8816 170.28 106.759 168.089 106.599C167.726 106.573 167.488 106.252 167.354 105.729C167.254 105.03 167.24 104.323 167.312 103.621C167.312 102.176 167.312 100.731 167.198 99.2912C167.031 96.6031 166.589 93.9392 165.878 91.3415C165.871 91.3254 165.859 91.3121 165.844 91.304C165.829 91.2959 165.811 91.2935 165.794 91.2973C165.777 91.301 165.763 91.3106 165.752 91.3245C165.742 91.3383 165.737 91.3553 165.738 91.3726C166.372 95.0364 166.729 98.7431 166.805 102.461C166.805 104.253 166.338 107.023 168.208 107.008C170.078 106.992 170.637 102.393 170.678 101.15C170.725 97.6234 170.314 94.1052 169.456 90.6838Z" fill="#263238"/>
<path d="M168.177 106.78C168.057 107.263 167.97 107.755 167.918 108.251C167.846 108.639 167.846 109.038 167.918 109.426C167.918 109.499 168.037 109.488 168.068 109.426C168.235 109.046 168.343 108.642 168.389 108.23C168.483 107.774 168.586 107.323 168.664 106.863C168.675 106.798 168.66 106.732 168.622 106.678C168.584 106.625 168.526 106.589 168.462 106.578C168.397 106.567 168.331 106.582 168.278 106.62C168.224 106.658 168.188 106.715 168.177 106.78Z" fill="#263238"/>
<path d="M163.361 191.653C163.298 191.104 163.226 190.56 163.148 190.017C163.003 188.981 162.827 187.945 162.667 186.883C162.34 184.786 161.983 182.699 161.631 180.606C160.89 176.463 160.036 172.289 159.134 168.151C158.617 165.815 158.031 163.49 157.41 161.196C157.363 161.035 157.135 161.113 157.166 161.268C157.545 163.381 157.912 165.499 158.342 167.602C158.772 169.705 159.202 171.797 159.621 173.894C160.445 178.038 161.211 182.212 162.035 186.36C162.268 187.536 162.475 188.712 162.708 189.882C162.822 190.467 162.936 191.052 163.065 191.632C163.195 192.213 163.371 192.787 163.464 193.373C163.464 193.43 163.557 193.404 163.547 193.373C163.438 192.787 163.428 192.218 163.361 191.653Z" fill="#263238"/>
<path d="M179.633 160.279C178.846 156.363 177.789 152.51 176.722 148.652C174.578 140.909 172.061 133.281 169.534 125.652L167.359 119.059C166.996 117.961 165.215 112.036 164.997 111.472C164.997 111.46 164.992 111.448 164.983 111.439C164.975 111.43 164.963 111.425 164.95 111.425C164.938 111.425 164.926 111.43 164.917 111.439C164.909 111.448 164.904 111.46 164.904 111.472C165.422 113.492 166.111 116.433 166.701 118.432C167.291 120.432 167.918 122.368 168.534 124.331C169.736 128.195 170.963 132.053 172.134 135.927C174.449 143.582 176.743 151.236 178.623 159.015C179.141 161.195 179.659 163.37 180.177 165.561C180.695 167.752 181.067 169.943 181.523 172.133C181.523 172.19 181.637 172.175 181.632 172.133C181.233 168.171 180.42 164.225 179.633 160.279Z" fill="#263238"/>
<path d="M164.966 180.783C163.666 173.314 162.107 165.883 160.388 158.513C158.668 151.143 156.726 143.722 154.598 136.404C152.469 129.086 150.118 121.841 147.591 114.652C146.318 111.266 145.248 107.807 144.385 104.294C143.608 100.804 143.214 97.0437 144.027 93.5116C144.23 92.6177 144.498 91.74 144.83 90.8859C144.856 90.8289 144.768 90.7771 144.742 90.8393C141.904 97.4528 143.748 104.683 145.907 111.203C147.093 114.777 148.357 118.319 149.533 121.898C150.731 125.571 151.879 129.259 152.977 132.96C155.152 140.304 157.148 147.684 158.964 155.1C160.78 162.516 162.394 169.996 163.806 177.541C165.23 185.091 166.427 192.668 167.644 200.25C167.799 201.234 167.923 202.229 168.053 203.218C168.053 203.275 168.151 203.275 168.141 203.218C167.25 195.724 166.261 188.245 164.966 180.783Z" fill="#263238"/>
<path d="M146.891 103.59C147.456 103.377 148.088 103.326 148.668 103.165C150.456 102.682 152.131 101.848 153.593 100.71C154.503 99.9258 155.205 98.9274 155.634 97.8048C155.892 97.204 157.016 94.0293 157.027 94.0034C157.037 93.9775 157.208 93.9568 157.203 94.0345C157.177 94.4643 156.535 97.1781 156.317 97.8617C155.958 99.1525 155.24 100.315 154.246 101.213C153.214 102.069 152.035 102.729 150.765 103.16C150.119 103.391 149.453 103.564 148.777 103.678C148.151 103.825 147.503 103.856 146.866 103.771C146.777 103.761 146.814 103.621 146.891 103.59Z" fill="#263238"/>
<path d="M178.405 101.513C178.094 101.382 177.774 101.273 177.447 101.186C177.105 101.046 176.777 100.873 176.469 100.669C175.807 100.242 175.213 99.7184 174.708 99.1148C174.126 98.3368 173.691 97.4593 173.423 96.5254C173.242 96.0075 172.755 93.0658 172.745 93.0451C172.734 93.0244 172.646 93.0088 172.657 93.0762C172.71 94.2602 172.849 95.4389 173.071 96.603C173.319 97.6825 173.768 98.7053 174.397 99.6172C174.925 100.301 175.59 100.867 176.349 101.28C176.688 101.464 177.051 101.601 177.427 101.689C177.75 101.795 178.098 101.795 178.421 101.689C178.478 101.663 178.447 101.539 178.405 101.513Z" fill="#263238"/>
<path d="M164.334 59.2574C169.477 68.4346 180.389 80.0458 184.532 79.8024C186.505 79.6885 190.058 79.906 192.482 77.4563C197.77 72.1116 200.768 65.5084 202.488 60.8111C203.161 58.9726 192.927 51.4009 191.658 53.0685C188.686 56.9683 185.444 64.4364 184.864 64.4312C182.73 64.4312 174.05 57.973 167.814 53.6693C160.807 48.8529 162.288 55.6011 164.334 59.2574Z" fill="#FBD3C6"/>
<path d="M191.374 34.8385L186.588 50.1423C186.397 50.5877 186.588 50.971 187.054 50.9917L195.061 51.4423C195.307 51.4385 195.546 51.3649 195.752 51.2301C195.957 51.0953 196.12 50.9049 196.221 50.681L201.001 35.3822C201.193 34.9317 201.001 34.5536 200.54 34.5277L192.529 34.0771C192.284 34.0819 192.045 34.1559 191.841 34.2906C191.636 34.4254 191.474 34.6153 191.374 34.8385Z" fill="#37474F"/>
<path d="M192.321 34.8853L187.541 50.184C187.487 50.2678 187.457 50.3645 187.453 50.464C187.449 50.5636 187.473 50.6623 187.52 50.7498C187.568 50.8372 187.638 50.9102 187.724 50.961C187.81 51.0119 187.908 51.0386 188.007 51.0386L196.014 51.4891C196.259 51.4844 196.497 51.4104 196.702 51.2756C196.906 51.1409 197.068 50.9509 197.169 50.7278L201.949 35.4239C202.141 34.9786 201.949 34.5953 201.483 34.5746L193.476 34.124C193.232 34.13 192.994 34.2045 192.79 34.3391C192.585 34.4737 192.423 34.663 192.321 34.8853Z" fill="#455A64"/>
<path d="M194.481 35.7191C194.47 35.8539 194.42 35.9825 194.336 36.0887C194.252 36.1948 194.139 36.2737 194.01 36.3154C193.882 36.3571 193.743 36.3597 193.613 36.3228C193.483 36.286 193.367 36.2114 193.279 36.1085C193.191 36.0055 193.136 35.8789 193.12 35.7445C193.105 35.6102 193.129 35.4742 193.191 35.3538C193.252 35.2334 193.348 35.134 193.466 35.0681C193.585 35.0022 193.719 34.9728 193.854 34.9836C194.034 34.9995 194.201 35.0855 194.318 35.2231C194.435 35.3606 194.494 35.5388 194.481 35.7191Z" fill="#263238"/>
<path d="M203.72 49.6352C202.975 45.6007 202.167 44.6789 203.337 40.9397C204.109 38.4848 202.876 36.9363 200.975 38.8215C197.868 41.9289 197.744 47.315 198.241 49.1794L203.72 49.6352Z" fill="#FBD3C6"/>
<path d="M202.255 61.3913C202.255 61.3913 204.383 55.9741 204.016 51.5978C203.757 48.5733 202.462 42.0478 194.289 38.1325C192.352 37.2003 188.929 37.2469 191.539 39.9192C193.399 41.8147 195.165 42.4621 196.024 43.762C196.024 43.762 191.679 44.3369 190.819 46.3153C190.07 48.0453 189.443 49.8261 188.945 51.6444C189.258 51.8121 189.581 51.9592 189.913 52.0847C189.913 52.0847 189.167 53.9646 190.431 56.7768L202.255 61.3913Z" fill="#FBD3C6"/>
<path d="M203.306 48.7492C202.161 47.6409 199.681 45.3363 197.024 44.1503C194.051 42.84 187.981 41.105 187.028 43.3061C186.334 44.922 188.582 45.7868 188.582 45.7868C188.582 45.7868 185.92 45.6004 185.609 47.1955C185.33 48.6508 187.116 49.2153 187.116 49.2153C187.116 49.2153 185.485 49.3811 185.485 50.8312C185.485 52.5817 188.903 51.9498 190.431 53.721C190.794 54.1095 203.306 48.7492 203.306 48.7492Z" fill="#FBD3C6"/>
<path d="M196.154 47.5219C193.892 46.1785 191.274 45.5586 188.649 45.7455C188.582 45.7455 188.556 45.8076 188.618 45.8128C191.188 46.0852 193.714 46.6678 196.143 47.5478C196.143 47.5478 196.169 47.5322 196.154 47.5219Z" fill="#263238"/>
<path d="M194.74 50.4843C193.59 49.8525 190.079 48.7287 187.142 49.1585C187.075 49.1585 187.049 49.2258 187.111 49.231C189.691 49.3682 192.247 49.7991 194.73 50.5154C194.73 50.5154 194.755 50.4843 194.74 50.4843Z" fill="#263238"/>
<path d="M189.209 56.1814L201.431 65.5502C201.431 65.5502 194.994 77.4152 190.214 79.1502C185.433 80.8851 183.926 80.3672 182.59 80.1083C181.254 79.8493 171.196 71.8944 164.464 59.6461C158.119 48.0763 165.499 51.5514 171.005 55.5703C174.112 57.8594 184.139 63.81 184.527 63.6806C184.915 63.5511 189.209 56.1814 189.209 56.1814Z" fill="#34260E"/>
<path opacity="0.2" d="M189.209 56.1814L201.431 65.5502C201.431 65.5502 194.994 77.4152 190.214 79.1502C185.433 80.8851 183.926 80.3672 182.59 80.1083C181.254 79.8493 171.196 71.8944 164.464 59.6461C158.119 48.0763 165.499 51.5514 171.005 55.5703C174.112 57.8594 184.139 63.81 184.527 63.6806C184.915 63.5511 189.209 56.1814 189.209 56.1814Z" fill="#050400"/>
<path d="M188.277 58.9467C190.188 60.3606 192.057 61.8262 193.911 63.3074C194.823 64.0325 198.324 67.057 199.334 67.9115C199.37 67.9478 199.282 68.0565 199.235 68.0255C198.246 67.3056 194.548 64.3484 193.652 63.6078C191.824 62.1007 190.027 60.5781 188.235 58.9985C188.228 58.993 188.224 58.985 188.223 58.9763C188.222 58.9675 188.224 58.9588 188.23 58.9519C188.235 58.945 188.243 58.9406 188.252 58.9397C188.261 58.9387 188.27 58.9412 188.277 58.9467Z" fill="#263238"/>
<path opacity="0.1" d="M180.379 78.7099C176.753 75.8977 169.637 69.0304 164.484 59.6461C161.108 53.4883 161.626 51.5928 163.676 51.7689C165.458 54.5811 175.127 70.206 180.379 78.7099Z" fill="#050400"/>
<path d="M141.443 96.7328C141.526 96.826 177.178 96.5723 177.52 96.2149C177.97 95.697 169.518 57.1292 165.81 52.3956C165.013 51.3598 162.428 51.1215 160.232 51.4168C159.662 51.4912 159.099 51.6142 158.549 51.7845H158.492C158.046 51.9168 157.627 52.1272 157.254 52.4059C151.195 57.3467 146.228 74.4477 145.079 79.58C143.173 88.0373 141.143 96.4014 141.443 96.7328Z" fill="#EBEBEB"/>
<path d="M158.109 51.8569C158.109 51.8569 160.434 67.7357 160.983 71.8426C161.532 75.9495 161.009 97.6909 161.009 97.6909L138.631 99.5812C138.631 99.5812 143.318 85.1422 143.37 84.2255C143.37 84.2255 147.083 66.8812 150.91 59.7186C152.619 56.5402 155.093 53.838 158.109 51.8569Z" fill="#34260E"/>
<path opacity="0.2" d="M158.109 51.8569C158.109 51.8569 160.434 67.7357 160.983 71.8426C161.532 75.9495 161.009 97.6909 161.009 97.6909L138.631 99.5812C138.631 99.5812 143.318 85.1422 143.37 84.2255C143.37 84.2255 147.083 66.8812 150.91 59.7186C152.619 56.5402 155.093 53.838 158.109 51.8569Z" fill="#050400"/>
<path d="M155.525 53.8457L148.792 98.7215L138.641 99.5813C138.641 99.5813 143.333 85.1423 143.38 84.2308C143.38 84.2308 147.099 66.8812 150.926 59.7135C152.113 57.5098 153.669 55.5253 155.525 53.8457Z" fill="#37474F"/>
<path d="M166.043 52.1885C166.043 52.1885 168.586 68.1915 168.855 69.5173C169.125 70.8432 172.999 96.9659 172.999 96.9659L178.602 97.085L175.562 85.1734C175.562 85.1734 168.747 55.5755 166.043 52.1885Z" fill="#34260E"/>
<path opacity="0.2" d="M166.043 52.1885C166.043 52.1885 168.586 68.1915 168.855 69.5173C169.125 70.8432 172.999 96.9659 172.999 96.9659L178.602 97.085L175.562 85.1734C175.562 85.1734 168.747 55.5755 166.043 52.1885Z" fill="#050400"/>
<path d="M164.298 57.2689C162.594 57.4605 159.378 55.0937 158.477 52.6078C158.42 52.4369 158.922 50.8055 159.445 48.796C159.761 47.5738 160.077 46.2066 160.279 44.9377C160.32 44.6788 167.928 48.128 167.928 48.128C167.218 49.6415 166.696 51.2365 166.375 52.8771C166.352 53.0487 166.343 53.2219 166.349 53.395V53.483C166.364 54.4877 166.121 57.0565 164.298 57.2689Z" fill="#FBD3C6"/>
<path d="M166.364 53.3849C166.364 53.4108 166.364 53.4419 166.364 53.4729C166.09 53.4664 165.816 53.4387 165.546 53.3901C160.885 52.5459 160.574 46.4865 160.569 44.9639C161.952 45.3937 167.939 48.1075 167.939 48.1075C167.228 49.6227 166.706 51.2194 166.385 52.8618C166.363 53.0352 166.356 53.2103 166.364 53.3849Z" fill="#263238"/>
<path d="M160.362 34.8129C159.145 37.537 159.611 45.9062 161.398 47.9882C163.987 51.0024 168.736 51.8569 171.429 48.6252C174.019 45.5178 173.237 34.5954 171.191 32.6532C168.182 29.7944 162.169 30.8043 160.362 34.8129Z" fill="#FBD3C6"/>
<path d="M167.768 41.0586C167.768 41.0586 167.721 41.0586 167.726 41.1052C167.757 41.6697 167.7 42.3223 167.208 42.5242V42.5553C167.825 42.4517 167.892 41.5868 167.768 41.0586Z" fill="#263238"/>
<path d="M167.25 40.4784C166.338 40.4318 166.313 42.2548 167.157 42.3014C168.001 42.348 168.016 40.5198 167.25 40.4784Z" fill="#263238"/>
<path d="M171.041 41.0796C171.041 41.0796 171.082 41.0796 171.082 41.1314C171.082 41.6959 171.124 42.3433 171.631 42.5401C171.631 42.5401 171.631 42.5763 171.631 42.5711C171.005 42.4779 170.927 41.613 171.041 41.0796Z" fill="#263238"/>
<path d="M171.554 40.4994C172.46 40.4424 172.507 42.2654 171.668 42.3172C170.829 42.369 170.792 40.546 171.554 40.4994Z" fill="#263238"/>
<path d="M166.546 39.6343C166.786 39.5681 167.023 39.4886 167.255 39.3961C167.518 39.3476 167.756 39.2127 167.934 39.0128C167.975 38.9393 167.992 38.8543 167.982 38.7703C167.972 38.6864 167.935 38.608 167.877 38.5467C167.74 38.4446 167.579 38.3806 167.41 38.3615C167.24 38.3424 167.069 38.3688 166.913 38.438C166.577 38.5292 166.285 38.7412 166.095 39.0335C166.055 39.1029 166.037 39.1822 166.042 39.2619C166.047 39.3416 166.075 39.418 166.123 39.4819C166.171 39.5457 166.236 39.5942 166.311 39.6213C166.387 39.6484 166.468 39.6529 166.546 39.6343Z" fill="#263238"/>
<path d="M172.268 39.6083C172.025 39.5579 171.784 39.4922 171.548 39.4115C171.285 39.3765 171.039 39.2565 170.849 39.0697C170.795 38.9969 170.767 38.9073 170.772 38.8164C170.777 38.7256 170.813 38.6393 170.875 38.5726C171.005 38.4624 171.162 38.3889 171.329 38.3598C171.497 38.3307 171.669 38.3469 171.828 38.4068C172.171 38.475 172.475 38.6714 172.678 38.9558C172.73 39.0221 172.76 39.1028 172.764 39.1869C172.769 39.2711 172.747 39.3546 172.703 39.426C172.658 39.4974 172.592 39.5533 172.514 39.5859C172.437 39.6185 172.351 39.6264 172.268 39.6083Z" fill="#263238"/>
<path d="M167.794 44.4923C167.933 44.7179 168.118 44.9121 168.337 45.0628C168.555 45.2134 168.802 45.3172 169.063 45.3676C169.291 45.4125 169.524 45.4264 169.757 45.409C169.8 45.4144 169.843 45.4144 169.886 45.409C169.927 45.414 169.969 45.414 170.01 45.409C170.041 45.403 170.068 45.3878 170.089 45.3656C170.111 45.3434 170.125 45.3151 170.129 45.2847C170.132 45.2658 170.132 45.2466 170.129 45.2277V45.1811C170.129 44.7461 170.129 44.0832 170.129 44.0832C170.285 44.166 171.093 44.5389 171.082 44.3111C171.058 42.3516 170.836 40.3996 170.419 38.4847C170.419 38.4226 170.311 38.4329 170.316 38.4847C170.316 40.2974 170.653 42.11 170.694 43.9175C170.409 43.7788 170.105 43.6811 169.793 43.6274C169.731 43.6274 169.876 44.9066 169.855 45.0983C169.498 45.1287 169.139 45.0876 168.798 44.9773C168.458 44.867 168.143 44.6898 167.871 44.4561C167.804 44.4095 167.768 44.4457 167.794 44.4923Z" fill="#263238"/>
<path d="M169.503 45.1864C169.259 45.4921 168.942 45.7309 168.581 45.8803C168.38 45.9552 168.161 45.9661 167.954 45.9114C167.504 45.7871 167.499 45.3935 167.587 45.0155C167.637 44.8353 167.709 44.6616 167.799 44.4976C168.279 44.9026 168.876 45.1439 169.503 45.1864Z" fill="#263238"/>
<path d="M168.581 45.8805C168.38 45.9554 168.161 45.9663 167.954 45.9116C167.504 45.7873 167.499 45.3937 167.587 45.0156C167.825 45.0276 168.053 45.1194 168.233 45.2762C168.414 45.433 168.536 45.6458 168.581 45.8805Z" fill="#FF9BBC"/>
<path d="M161.362 42.4157C162.962 42.5348 163.05 39.7381 163.05 39.7381C163.05 39.7381 166.287 39.4429 166.862 35.3256C166.862 35.3256 171.399 37.2108 173.936 34.9579C176.474 32.7051 170.467 26.4023 162.729 31.5553C162.729 31.5553 159.182 31.9541 158.477 34.787C157.773 37.6199 159.446 42.2758 161.362 42.4157Z" fill="#263238"/>
<path d="M165.784 34.8493C165.781 34.8414 165.776 34.8345 165.769 34.8297C165.762 34.8249 165.754 34.8223 165.745 34.8223C165.737 34.8223 165.729 34.8249 165.722 34.8297C165.715 34.8345 165.71 34.8414 165.707 34.8493C166.064 37.62 164.153 40.0283 161.237 39.6502C161.219 39.6506 161.202 39.6573 161.188 39.6691C161.175 39.6808 161.166 39.6969 161.163 39.7147C161.159 39.7324 161.163 39.7506 161.172 39.7662C161.18 39.7819 161.194 39.7939 161.211 39.8004C164.075 40.4685 166.929 37.734 165.784 34.8493Z" fill="#263238"/>
<path d="M168.695 29.6235C169.685 29.7788 170.646 30.0845 171.543 30.5299C172.864 31.2497 174.537 33.0209 173.485 34.6109C172.041 36.7861 168.674 35.9678 166.623 35.3049C166.597 35.2925 166.566 35.2913 166.538 35.3015C166.511 35.3117 166.488 35.3325 166.476 35.3593C166.463 35.386 166.462 35.4166 166.472 35.4443C166.483 35.472 166.503 35.4945 166.53 35.5069C168.571 36.5685 172.916 37.0916 173.967 34.383C175.138 31.3947 170.875 29.81 168.695 29.6235Z" fill="#263238"/>
<path d="M161.584 41.8357C161.584 41.8357 160.03 38.9872 158.736 39.5207C157.441 40.0541 158.451 44.0471 159.808 44.6996C159.976 44.7978 160.163 44.861 160.356 44.8855C160.55 44.91 160.746 44.8952 160.934 44.842C161.121 44.7888 161.296 44.6983 161.448 44.576C161.6 44.4536 161.725 44.3019 161.817 44.1299L161.584 41.8357Z" fill="#FBD3C6"/>
<path d="M159.046 40.6445C159.046 40.6445 159.015 40.6445 159.046 40.6808C159.994 41.1987 160.419 42.1568 160.683 43.1512C160.636 43.0457 160.566 42.9518 160.479 42.8758C160.392 42.7998 160.29 42.7437 160.179 42.7112C160.068 42.6787 159.952 42.6706 159.838 42.6876C159.723 42.7045 159.614 42.7461 159.518 42.8093C159.492 42.8093 159.518 42.8663 159.518 42.8663C159.698 42.828 159.885 42.8469 160.054 42.9202C160.223 42.9935 160.365 43.1177 160.46 43.2755C160.617 43.5391 160.746 43.8186 160.844 44.1093C160.88 44.2025 161.045 44.1766 161.02 44.0678C161.185 42.799 160.388 40.9294 159.046 40.6445Z" fill="#263238"/>
<path d="M153.029 56.5387C145.695 69.191 135.694 95.3448 133.711 99.4983C132.37 102.316 147.104 109.748 147.73 107.697C148.528 105.071 157.798 74.1317 158.466 59.0453C158.772 52.0382 155.375 52.4888 153.029 56.5387Z" fill="#FBD3C6"/>
<path d="M148.129 106.283C147.782 108.836 146.058 113.984 144.758 114.766C143.458 115.548 136.684 115.382 133.265 115.382C129.847 115.382 129.174 114.429 129.231 113.254C129.288 112.078 136.482 111.855 136.482 111.855C136.482 111.855 126.901 114.6 124.492 115.045C122.084 115.491 116.527 116.9 115.724 114.9C115.362 113.999 116.884 113.088 116.884 113.088C116.884 113.088 114.554 113.766 114.186 112.606C113.761 111.291 115.616 110.566 115.616 110.566C115.616 110.566 114.16 110.856 114.124 109.784C114.051 107.386 123.161 106.205 123.161 106.205C123.161 106.205 116.185 109.602 115.963 107.64C115.652 104.931 129.946 101.943 131.437 100.772C132.52 99.8691 133.532 98.8858 134.467 97.8306L148.129 106.283Z" fill="#FBD3C6"/>
<path d="M129.283 113.849C129.258 113.683 129.275 113.513 129.331 113.354C129.386 113.195 129.48 113.052 129.604 112.938C129.851 112.713 130.132 112.529 130.438 112.394C131.07 112.124 131.725 111.912 132.395 111.762C133.742 111.42 135.125 111.177 136.502 110.82C135.081 110.799 133.663 110.959 132.281 111.296C131.577 111.457 130.898 111.716 130.267 112.068C129.947 112.25 129.667 112.495 129.443 112.788C129.327 112.935 129.25 113.111 129.222 113.297C129.194 113.483 129.215 113.674 129.283 113.849Z" fill="#263238"/>
<path d="M116.864 113.088C117.848 112.844 118.821 112.57 119.79 112.285C120.758 112 121.722 111.71 122.69 111.42L125.575 110.514C126.538 110.213 127.496 109.913 128.47 109.623C127.461 109.729 126.461 109.902 125.476 110.141C124.487 110.369 123.519 110.659 122.55 110.944C121.582 111.229 120.624 111.565 119.676 111.923C118.728 112.28 117.786 112.658 116.864 113.088Z" fill="#263238"/>
<path d="M126.155 107.23C125.227 107.293 124.304 107.422 123.394 107.614C122.481 107.796 121.579 108.027 120.691 108.308C119.801 108.584 118.928 108.911 118.076 109.287C117.218 109.652 116.389 110.079 115.595 110.566C116.475 110.26 117.33 109.924 118.21 109.628C119.091 109.333 119.95 109.038 120.831 108.769C121.711 108.499 122.597 108.251 123.482 107.971C124.368 107.691 125.259 107.453 126.155 107.23Z" fill="#263238"/>
<path d="M124.746 104.947C121.739 105.207 118.842 106.197 116.304 107.831C117.718 107.314 119.096 106.796 120.504 106.33C121.913 105.863 123.317 105.382 124.746 104.947Z" fill="#263238"/>
<path d="M132.851 98.8404L149.004 106.733C149.004 106.733 157.441 73.2459 158.482 61.5103C159.523 49.7748 155.017 52.473 151.899 57.9834C147.642 65.5033 132.851 98.8404 132.851 98.8404Z" fill="#34260E"/>
<path opacity="0.2" d="M132.851 98.8404L149.004 106.733C149.004 106.733 157.441 73.2459 158.482 61.5103C159.523 49.7748 155.017 52.473 151.899 57.9834C147.642 65.5033 132.851 98.8404 132.851 98.8404Z" fill="#050400"/>
<path d="M148.606 102.632C146.41 101.736 137.538 97.7532 135.658 96.764C135.534 96.6967 135.544 96.5983 135.689 96.6552C142.344 99.167 146.508 101.555 148.637 102.544C148.648 102.548 148.658 102.556 148.663 102.568C148.669 102.579 148.669 102.592 148.665 102.603C148.661 102.615 148.652 102.625 148.641 102.63C148.63 102.635 148.617 102.636 148.606 102.632Z" fill="#263238"/>
<path d="M151.009 98.4158C151.252 96.686 155.385 77.0162 155.732 75.3072C156.079 73.5981 156.452 71.8942 156.856 70.2007L157.462 67.6526C157.684 66.8085 157.886 65.9643 158.125 65.1201C158.011 65.985 157.86 66.8447 157.731 67.7096L157.275 70.2991C156.97 72.0185 156.628 73.7276 156.276 75.4315C155.924 77.1353 151.475 96.7326 151.009 98.4158Z" fill="#263238"/>
<path d="M157.203 69.5692C157.329 69.1238 157.502 68.6932 157.721 68.2848C157.932 67.8724 158.189 67.4851 158.487 67.1299C158.361 67.5753 158.187 68.0059 157.969 68.4143C157.758 68.8266 157.5 69.214 157.203 69.5692Z" fill="#263238"/>
<path d="M197.992 22.2228C197.786 24.1245 197.057 25.9319 195.886 27.4446C194.716 28.9574 193.149 30.1164 191.36 30.7933C189.571 31.4701 187.629 31.6382 185.75 31.2791C183.871 30.92 182.129 30.0476 180.715 28.7586L175.536 29.5148L178.126 25.0453C177.515 23.5851 177.246 22.0043 177.341 20.4242C177.437 18.8442 177.893 17.3069 178.674 15.9306C179.456 14.5542 180.543 13.3753 181.851 12.4845C183.16 11.5937 184.655 11.0146 186.222 10.7917C187.789 10.5688 189.387 10.708 190.892 11.1988C192.397 11.6895 193.769 12.5186 194.904 13.6224C196.038 14.7262 196.905 16.0754 197.437 17.5663C197.968 19.0571 198.151 20.6501 197.972 22.2228H197.992Z" fill="white"/>
<path d="M197.992 22.2228C197.796 24.1253 197.079 25.9369 195.921 27.4587C195.631 27.8368 195.318 28.1966 194.983 28.536C194.642 28.8669 194.278 29.1749 193.896 29.4578C193.134 30.0376 192.294 30.5051 191.4 30.8458C190.06 31.374 188.622 31.6106 187.184 31.5398C186.704 31.5285 186.226 31.4782 185.754 31.3896C183.849 31.0398 182.079 30.1664 180.643 28.8674L180.767 28.9037L175.588 29.6961L175.21 29.753L175.402 29.4216L177.991 24.9469V25.123C177.385 23.6419 177.127 22.0413 177.237 20.4447C177.348 18.8481 177.824 17.2983 178.628 15.9148C179.433 14.5354 180.539 13.3562 181.865 12.4656C183.188 11.5908 184.692 11.0264 186.264 10.8148C187.837 10.6031 189.436 10.7496 190.944 11.2434C192.439 11.7503 193.801 12.5856 194.932 13.6878C196.053 14.7871 196.911 16.126 197.441 17.6042C197.971 19.0823 198.16 20.6614 197.992 22.2228ZM197.992 22.2228C198.158 20.6663 197.964 19.0926 197.426 17.6229C196.887 16.1533 196.018 14.8271 194.885 13.7466C193.753 12.6661 192.387 11.8603 190.894 11.3912C189.4 10.9222 187.819 10.8025 186.272 11.0414C184.74 11.2709 183.281 11.8465 182.005 12.7245C180.737 13.6105 179.677 14.7608 178.897 16.0961C178.148 17.4315 177.707 18.9181 177.608 20.4464C177.514 21.9822 177.763 23.5196 178.338 24.9469L178.374 25.0402L178.323 25.1282L175.733 29.5873L175.547 29.3128L180.726 28.5877H180.798L180.85 28.6344C182.229 29.9273 183.942 30.8098 185.796 31.1824C186.258 31.2779 186.728 31.335 187.199 31.3533C187.67 31.387 188.143 31.387 188.613 31.3533C189.557 31.2793 190.486 31.0754 191.374 30.7474C192.267 30.4254 193.106 29.9715 193.865 29.4008C194.248 29.12 194.612 28.8155 194.957 28.4893C195.293 28.1547 195.606 27.7983 195.895 27.4225C197.059 25.915 197.784 24.1159 197.992 22.2228Z" fill="white"/>
<path d="M186.505 27.0394L182.093 22.5699L183.574 21.1094L186.153 23.7145L191.508 15.3193L193.264 16.4432L186.505 27.0394Z" fill="#FFC727"/>
</svg>
